<mxfile host="app.diagrams.net" modified="2024-07-24T23:42:00.008Z" agent="Mozilla/5.0 (Windows NT 10.0; Win64; x64) AppleWebKit/537.36 (KHTML, like Gecko) Chrome/126.0.0.0 Safari/537.36" etag="5zggHcCKiQD-oYs-LQLG" version="24.7.3" type="github">
  <diagram name="Page-1" id="4egFIx3D8ymip1pw0-96">
    <mxGraphModel dx="1615" dy="1778" grid="1" gridSize="10" guides="1" tooltips="1" connect="1" arrows="1" fold="1" page="1" pageScale="1" pageWidth="1100" pageHeight="850" math="0" shadow="0">
      <root>
        <mxCell id="0" />
        <mxCell id="1" parent="0" />
        <mxCell id="ux9DrI02TPGSGOPqTvtx-61" style="edgeStyle=orthogonalEdgeStyle;rounded=0;orthogonalLoop=1;jettySize=auto;html=1;" edge="1" parent="1" source="ux9DrI02TPGSGOPqTvtx-65" target="cdZ0ecQucNiZ-IruvXoV-27">
          <mxGeometry relative="1" as="geometry">
            <mxPoint x="2000" y="910" as="targetPoint" />
          </mxGeometry>
        </mxCell>
        <mxCell id="ux9DrI02TPGSGOPqTvtx-62" value="True" style="edgeLabel;html=1;align=center;verticalAlign=middle;resizable=0;points=[];fontSize=12;" vertex="1" connectable="0" parent="ux9DrI02TPGSGOPqTvtx-61">
          <mxGeometry x="0.0096" y="1" relative="1" as="geometry">
            <mxPoint x="-4" as="offset" />
          </mxGeometry>
        </mxCell>
        <mxCell id="EiMYRc3BGC8ChVaxLTV0-5" value="" style="edgeStyle=orthogonalEdgeStyle;rounded=0;orthogonalLoop=1;jettySize=auto;html=1;" parent="1" source="EiMYRc3BGC8ChVaxLTV0-32" target="EiMYRc3BGC8ChVaxLTV0-4" edge="1">
          <mxGeometry relative="1" as="geometry">
            <mxPoint x="360" y="150" as="sourcePoint" />
          </mxGeometry>
        </mxCell>
        <mxCell id="EiMYRc3BGC8ChVaxLTV0-7" value="" style="edgeStyle=orthogonalEdgeStyle;rounded=0;orthogonalLoop=1;jettySize=auto;html=1;" parent="1" source="EiMYRc3BGC8ChVaxLTV0-4" target="EiMYRc3BGC8ChVaxLTV0-6" edge="1">
          <mxGeometry relative="1" as="geometry" />
        </mxCell>
        <mxCell id="EiMYRc3BGC8ChVaxLTV0-4" value="Input username&lt;div&gt;dan password&lt;/div&gt;" style="shape=parallelogram;perimeter=parallelogramPerimeter;whiteSpace=wrap;html=1;fixedSize=1;rounded=1;strokeColor=default;strokeWidth=2;align=center;verticalAlign=middle;arcSize=12;fontFamily=Helvetica;fontSize=12;fontColor=default;fillColor=default;" parent="1" vertex="1">
          <mxGeometry x="420" y="120" width="120" height="60" as="geometry" />
        </mxCell>
        <mxCell id="EiMYRc3BGC8ChVaxLTV0-8" style="edgeStyle=orthogonalEdgeStyle;rounded=0;orthogonalLoop=1;jettySize=auto;html=1;" parent="1" source="EiMYRc3BGC8ChVaxLTV0-6" target="EiMYRc3BGC8ChVaxLTV0-4" edge="1">
          <mxGeometry relative="1" as="geometry">
            <Array as="points">
              <mxPoint x="640" y="200" />
              <mxPoint x="490" y="200" />
            </Array>
          </mxGeometry>
        </mxCell>
        <mxCell id="EiMYRc3BGC8ChVaxLTV0-9" value="False" style="edgeLabel;html=1;align=center;verticalAlign=middle;resizable=0;points=[];" parent="EiMYRc3BGC8ChVaxLTV0-8" vertex="1" connectable="0">
          <mxGeometry x="-0.2243" y="1" relative="1" as="geometry">
            <mxPoint x="-20" y="-1" as="offset" />
          </mxGeometry>
        </mxCell>
        <mxCell id="EiMYRc3BGC8ChVaxLTV0-11" value="" style="edgeStyle=orthogonalEdgeStyle;rounded=0;orthogonalLoop=1;jettySize=auto;html=1;" parent="1" source="EiMYRc3BGC8ChVaxLTV0-6" target="EiMYRc3BGC8ChVaxLTV0-10" edge="1">
          <mxGeometry relative="1" as="geometry" />
        </mxCell>
        <mxCell id="EiMYRc3BGC8ChVaxLTV0-12" value="True" style="edgeLabel;html=1;align=center;verticalAlign=middle;resizable=0;points=[];" parent="EiMYRc3BGC8ChVaxLTV0-11" vertex="1" connectable="0">
          <mxGeometry x="-0.6067" y="-2" relative="1" as="geometry">
            <mxPoint x="14" y="-2" as="offset" />
          </mxGeometry>
        </mxCell>
        <mxCell id="EiMYRc3BGC8ChVaxLTV0-6" value="Validasi" style="rhombus;whiteSpace=wrap;html=1;strokeColor=default;strokeWidth=2;align=center;verticalAlign=middle;fontFamily=Helvetica;fontSize=12;fontColor=default;fillColor=default;" parent="1" vertex="1">
          <mxGeometry x="600" y="110" width="80" height="80" as="geometry" />
        </mxCell>
        <mxCell id="EiMYRc3BGC8ChVaxLTV0-36" style="edgeStyle=orthogonalEdgeStyle;rounded=0;orthogonalLoop=1;jettySize=auto;html=1;" parent="1" source="EiMYRc3BGC8ChVaxLTV0-10" target="EiMYRc3BGC8ChVaxLTV0-35" edge="1">
          <mxGeometry relative="1" as="geometry" />
        </mxCell>
        <mxCell id="EiMYRc3BGC8ChVaxLTV0-10" value="Dashboard" style="whiteSpace=wrap;html=1;rounded=1;strokeColor=default;strokeWidth=2;align=center;verticalAlign=middle;arcSize=14;fontFamily=Helvetica;fontSize=12;fontColor=default;fillColor=default;" parent="1" vertex="1">
          <mxGeometry x="760" y="120" width="120" height="60" as="geometry" />
        </mxCell>
        <mxCell id="EiMYRc3BGC8ChVaxLTV0-15" value="" style="edgeStyle=orthogonalEdgeStyle;rounded=0;orthogonalLoop=1;jettySize=auto;html=1;" parent="1" source="EiMYRc3BGC8ChVaxLTV0-16" target="EiMYRc3BGC8ChVaxLTV0-21" edge="1">
          <mxGeometry relative="1" as="geometry" />
        </mxCell>
        <mxCell id="EiMYRc3BGC8ChVaxLTV0-16" value="Input email, username,&lt;span style=&quot;background-color: initial;&quot;&gt;&amp;nbsp;password&lt;/span&gt;" style="shape=parallelogram;perimeter=parallelogramPerimeter;whiteSpace=wrap;html=1;fixedSize=1;rounded=1;strokeColor=default;strokeWidth=2;align=center;verticalAlign=middle;arcSize=12;fontFamily=Helvetica;fontSize=12;fontColor=default;fillColor=default;" parent="1" vertex="1">
          <mxGeometry x="405" y="240" width="150" height="60" as="geometry" />
        </mxCell>
        <mxCell id="EiMYRc3BGC8ChVaxLTV0-17" style="edgeStyle=orthogonalEdgeStyle;rounded=0;orthogonalLoop=1;jettySize=auto;html=1;" parent="1" source="EiMYRc3BGC8ChVaxLTV0-21" target="EiMYRc3BGC8ChVaxLTV0-16" edge="1">
          <mxGeometry relative="1" as="geometry">
            <Array as="points">
              <mxPoint x="640" y="320" />
              <mxPoint x="490" y="320" />
            </Array>
          </mxGeometry>
        </mxCell>
        <mxCell id="EiMYRc3BGC8ChVaxLTV0-18" value="False" style="edgeLabel;html=1;align=center;verticalAlign=middle;resizable=0;points=[];" parent="EiMYRc3BGC8ChVaxLTV0-17" vertex="1" connectable="0">
          <mxGeometry x="-0.2243" y="1" relative="1" as="geometry">
            <mxPoint x="-20" y="-1" as="offset" />
          </mxGeometry>
        </mxCell>
        <mxCell id="EiMYRc3BGC8ChVaxLTV0-19" value="" style="edgeStyle=orthogonalEdgeStyle;rounded=0;orthogonalLoop=1;jettySize=auto;html=1;" parent="1" source="EiMYRc3BGC8ChVaxLTV0-21" target="EiMYRc3BGC8ChVaxLTV0-38" edge="1">
          <mxGeometry relative="1" as="geometry">
            <mxPoint x="760" y="270" as="targetPoint" />
          </mxGeometry>
        </mxCell>
        <mxCell id="EiMYRc3BGC8ChVaxLTV0-20" value="True" style="edgeLabel;html=1;align=center;verticalAlign=middle;resizable=0;points=[];" parent="EiMYRc3BGC8ChVaxLTV0-19" vertex="1" connectable="0">
          <mxGeometry x="-0.6067" y="-2" relative="1" as="geometry">
            <mxPoint x="14" y="-2" as="offset" />
          </mxGeometry>
        </mxCell>
        <mxCell id="EiMYRc3BGC8ChVaxLTV0-21" value="Validasi" style="rhombus;whiteSpace=wrap;html=1;strokeColor=default;strokeWidth=2;align=center;verticalAlign=middle;fontFamily=Helvetica;fontSize=12;fontColor=default;fillColor=default;" parent="1" vertex="1">
          <mxGeometry x="600" y="230" width="80" height="80" as="geometry" />
        </mxCell>
        <mxCell id="EiMYRc3BGC8ChVaxLTV0-37" style="edgeStyle=orthogonalEdgeStyle;rounded=0;orthogonalLoop=1;jettySize=auto;html=1;" parent="1" source="EiMYRc3BGC8ChVaxLTV0-38" target="EiMYRc3BGC8ChVaxLTV0-34" edge="1">
          <mxGeometry relative="1" as="geometry">
            <mxPoint x="880" y="270" as="sourcePoint" />
          </mxGeometry>
        </mxCell>
        <mxCell id="EiMYRc3BGC8ChVaxLTV0-24" value="Start" style="strokeWidth=2;html=1;shape=mxgraph.flowchart.terminator;whiteSpace=wrap;" parent="1" vertex="1">
          <mxGeometry x="1660" y="85" width="100" height="60" as="geometry" />
        </mxCell>
        <mxCell id="EiMYRc3BGC8ChVaxLTV0-25" value="" style="shape=parallelogram;html=1;strokeWidth=2;perimeter=parallelogramPerimeter;whiteSpace=wrap;rounded=1;arcSize=12;size=0.23;" parent="1" vertex="1">
          <mxGeometry x="1470" y="65" width="100" height="60" as="geometry" />
        </mxCell>
        <mxCell id="EiMYRc3BGC8ChVaxLTV0-26" value="" style="rounded=1;whiteSpace=wrap;html=1;absoluteArcSize=1;arcSize=14;strokeWidth=2;" parent="1" vertex="1">
          <mxGeometry x="1250" width="100" height="100" as="geometry" />
        </mxCell>
        <mxCell id="EiMYRc3BGC8ChVaxLTV0-29" style="edgeStyle=orthogonalEdgeStyle;rounded=0;orthogonalLoop=1;jettySize=auto;html=1;" parent="1" source="EiMYRc3BGC8ChVaxLTV0-33" target="EiMYRc3BGC8ChVaxLTV0-16" edge="1">
          <mxGeometry relative="1" as="geometry">
            <mxPoint x="360" y="270" as="sourcePoint" />
          </mxGeometry>
        </mxCell>
        <mxCell id="EiMYRc3BGC8ChVaxLTV0-28" value="" style="strokeWidth=2;html=1;shape=mxgraph.flowchart.start_1;whiteSpace=wrap;" parent="1" vertex="1">
          <mxGeometry x="1360" y="85" width="100" height="60" as="geometry" />
        </mxCell>
        <mxCell id="EiMYRc3BGC8ChVaxLTV0-31" value="" style="strokeWidth=2;html=1;shape=mxgraph.flowchart.decision;whiteSpace=wrap;" parent="1" vertex="1">
          <mxGeometry x="1560" y="100" width="100" height="100" as="geometry" />
        </mxCell>
        <mxCell id="EiMYRc3BGC8ChVaxLTV0-32" value="Start" style="strokeWidth=2;html=1;shape=mxgraph.flowchart.terminator;whiteSpace=wrap;" parent="1" vertex="1">
          <mxGeometry x="260" y="120" width="100" height="60" as="geometry" />
        </mxCell>
        <mxCell id="EiMYRc3BGC8ChVaxLTV0-33" value="Start" style="strokeWidth=2;html=1;shape=mxgraph.flowchart.terminator;whiteSpace=wrap;" parent="1" vertex="1">
          <mxGeometry x="260" y="240" width="100" height="60" as="geometry" />
        </mxCell>
        <mxCell id="EiMYRc3BGC8ChVaxLTV0-34" value="End" style="strokeWidth=2;html=1;shape=mxgraph.flowchart.terminator;whiteSpace=wrap;" parent="1" vertex="1">
          <mxGeometry x="940" y="240" width="100" height="60" as="geometry" />
        </mxCell>
        <mxCell id="EiMYRc3BGC8ChVaxLTV0-35" value="End" style="strokeWidth=2;html=1;shape=mxgraph.flowchart.terminator;whiteSpace=wrap;" parent="1" vertex="1">
          <mxGeometry x="940" y="120" width="100" height="60" as="geometry" />
        </mxCell>
        <mxCell id="EiMYRc3BGC8ChVaxLTV0-38" value="&lt;div&gt;&lt;br&gt;&lt;/div&gt;Insert Data User" style="strokeWidth=2;html=1;shape=mxgraph.flowchart.database;whiteSpace=wrap;" parent="1" vertex="1">
          <mxGeometry x="785" y="230" width="70" height="80" as="geometry" />
        </mxCell>
        <mxCell id="EiMYRc3BGC8ChVaxLTV0-39" value="" style="edgeStyle=orthogonalEdgeStyle;rounded=0;orthogonalLoop=1;jettySize=auto;html=1;" parent="1" source="EiMYRc3BGC8ChVaxLTV0-40" target="EiMYRc3BGC8ChVaxLTV0-45" edge="1">
          <mxGeometry relative="1" as="geometry" />
        </mxCell>
        <mxCell id="EiMYRc3BGC8ChVaxLTV0-40" value="Input role user baru" style="shape=parallelogram;perimeter=parallelogramPerimeter;whiteSpace=wrap;html=1;fixedSize=1;rounded=1;strokeColor=default;strokeWidth=2;align=center;verticalAlign=middle;arcSize=12;fontFamily=Helvetica;fontSize=12;fontColor=default;fillColor=default;" parent="1" vertex="1">
          <mxGeometry x="405" y="360" width="150" height="60" as="geometry" />
        </mxCell>
        <mxCell id="EiMYRc3BGC8ChVaxLTV0-41" style="edgeStyle=orthogonalEdgeStyle;rounded=0;orthogonalLoop=1;jettySize=auto;html=1;" parent="1" source="EiMYRc3BGC8ChVaxLTV0-45" target="EiMYRc3BGC8ChVaxLTV0-40" edge="1">
          <mxGeometry relative="1" as="geometry">
            <Array as="points">
              <mxPoint x="640" y="440" />
              <mxPoint x="490" y="440" />
            </Array>
          </mxGeometry>
        </mxCell>
        <mxCell id="EiMYRc3BGC8ChVaxLTV0-42" value="False" style="edgeLabel;html=1;align=center;verticalAlign=middle;resizable=0;points=[];" parent="EiMYRc3BGC8ChVaxLTV0-41" vertex="1" connectable="0">
          <mxGeometry x="-0.2243" y="1" relative="1" as="geometry">
            <mxPoint x="-20" y="-1" as="offset" />
          </mxGeometry>
        </mxCell>
        <mxCell id="EiMYRc3BGC8ChVaxLTV0-43" value="" style="edgeStyle=orthogonalEdgeStyle;rounded=0;orthogonalLoop=1;jettySize=auto;html=1;" parent="1" source="EiMYRc3BGC8ChVaxLTV0-45" target="EiMYRc3BGC8ChVaxLTV0-50" edge="1">
          <mxGeometry relative="1" as="geometry">
            <mxPoint x="760" y="390" as="targetPoint" />
          </mxGeometry>
        </mxCell>
        <mxCell id="EiMYRc3BGC8ChVaxLTV0-44" value="True" style="edgeLabel;html=1;align=center;verticalAlign=middle;resizable=0;points=[];" parent="EiMYRc3BGC8ChVaxLTV0-43" vertex="1" connectable="0">
          <mxGeometry x="-0.6067" y="-2" relative="1" as="geometry">
            <mxPoint x="14" y="-2" as="offset" />
          </mxGeometry>
        </mxCell>
        <mxCell id="EiMYRc3BGC8ChVaxLTV0-45" value="Validasi" style="rhombus;whiteSpace=wrap;html=1;strokeColor=default;strokeWidth=2;align=center;verticalAlign=middle;fontFamily=Helvetica;fontSize=12;fontColor=default;fillColor=default;" parent="1" vertex="1">
          <mxGeometry x="600" y="350" width="80" height="80" as="geometry" />
        </mxCell>
        <mxCell id="EiMYRc3BGC8ChVaxLTV0-46" style="edgeStyle=orthogonalEdgeStyle;rounded=0;orthogonalLoop=1;jettySize=auto;html=1;" parent="1" source="EiMYRc3BGC8ChVaxLTV0-50" target="EiMYRc3BGC8ChVaxLTV0-49" edge="1">
          <mxGeometry relative="1" as="geometry">
            <mxPoint x="880" y="390" as="sourcePoint" />
          </mxGeometry>
        </mxCell>
        <mxCell id="EiMYRc3BGC8ChVaxLTV0-47" style="edgeStyle=orthogonalEdgeStyle;rounded=0;orthogonalLoop=1;jettySize=auto;html=1;" parent="1" source="EiMYRc3BGC8ChVaxLTV0-48" target="EiMYRc3BGC8ChVaxLTV0-40" edge="1">
          <mxGeometry relative="1" as="geometry">
            <mxPoint x="360" y="390" as="sourcePoint" />
          </mxGeometry>
        </mxCell>
        <mxCell id="EiMYRc3BGC8ChVaxLTV0-48" value="Start" style="strokeWidth=2;html=1;shape=mxgraph.flowchart.terminator;whiteSpace=wrap;" parent="1" vertex="1">
          <mxGeometry x="260" y="360" width="100" height="60" as="geometry" />
        </mxCell>
        <mxCell id="EiMYRc3BGC8ChVaxLTV0-49" value="End" style="strokeWidth=2;html=1;shape=mxgraph.flowchart.terminator;whiteSpace=wrap;" parent="1" vertex="1">
          <mxGeometry x="940" y="360" width="100" height="60" as="geometry" />
        </mxCell>
        <mxCell id="EiMYRc3BGC8ChVaxLTV0-50" value="&lt;div&gt;&lt;br&gt;&lt;/div&gt;Update Data User" style="strokeWidth=2;html=1;shape=mxgraph.flowchart.database;whiteSpace=wrap;" parent="1" vertex="1">
          <mxGeometry x="785" y="350" width="70" height="80" as="geometry" />
        </mxCell>
        <mxCell id="EiMYRc3BGC8ChVaxLTV0-51" value="" style="edgeStyle=orthogonalEdgeStyle;rounded=0;orthogonalLoop=1;jettySize=auto;html=1;" parent="1" source="EiMYRc3BGC8ChVaxLTV0-52" target="EiMYRc3BGC8ChVaxLTV0-57" edge="1">
          <mxGeometry relative="1" as="geometry" />
        </mxCell>
        <mxCell id="EiMYRc3BGC8ChVaxLTV0-52" value="Input id user" style="shape=parallelogram;perimeter=parallelogramPerimeter;whiteSpace=wrap;html=1;fixedSize=1;rounded=1;strokeColor=default;strokeWidth=2;align=center;verticalAlign=middle;arcSize=12;fontFamily=Helvetica;fontSize=12;fontColor=default;fillColor=default;" parent="1" vertex="1">
          <mxGeometry x="405" y="480" width="150" height="60" as="geometry" />
        </mxCell>
        <mxCell id="EiMYRc3BGC8ChVaxLTV0-53" style="edgeStyle=orthogonalEdgeStyle;rounded=0;orthogonalLoop=1;jettySize=auto;html=1;" parent="1" source="EiMYRc3BGC8ChVaxLTV0-57" target="EiMYRc3BGC8ChVaxLTV0-52" edge="1">
          <mxGeometry relative="1" as="geometry">
            <Array as="points">
              <mxPoint x="640" y="560" />
              <mxPoint x="490" y="560" />
            </Array>
          </mxGeometry>
        </mxCell>
        <mxCell id="EiMYRc3BGC8ChVaxLTV0-54" value="False" style="edgeLabel;html=1;align=center;verticalAlign=middle;resizable=0;points=[];" parent="EiMYRc3BGC8ChVaxLTV0-53" vertex="1" connectable="0">
          <mxGeometry x="-0.2243" y="1" relative="1" as="geometry">
            <mxPoint x="-20" y="-1" as="offset" />
          </mxGeometry>
        </mxCell>
        <mxCell id="EiMYRc3BGC8ChVaxLTV0-55" value="" style="edgeStyle=orthogonalEdgeStyle;rounded=0;orthogonalLoop=1;jettySize=auto;html=1;" parent="1" source="EiMYRc3BGC8ChVaxLTV0-57" target="EiMYRc3BGC8ChVaxLTV0-62" edge="1">
          <mxGeometry relative="1" as="geometry">
            <mxPoint x="760" y="510" as="targetPoint" />
          </mxGeometry>
        </mxCell>
        <mxCell id="EiMYRc3BGC8ChVaxLTV0-56" value="True" style="edgeLabel;html=1;align=center;verticalAlign=middle;resizable=0;points=[];" parent="EiMYRc3BGC8ChVaxLTV0-55" vertex="1" connectable="0">
          <mxGeometry x="-0.6067" y="-2" relative="1" as="geometry">
            <mxPoint x="14" y="-2" as="offset" />
          </mxGeometry>
        </mxCell>
        <mxCell id="EiMYRc3BGC8ChVaxLTV0-57" value="Konfirmasi" style="rhombus;whiteSpace=wrap;html=1;strokeColor=default;strokeWidth=2;align=center;verticalAlign=middle;fontFamily=Helvetica;fontSize=12;fontColor=default;fillColor=default;" parent="1" vertex="1">
          <mxGeometry x="600" y="470" width="80" height="80" as="geometry" />
        </mxCell>
        <mxCell id="EiMYRc3BGC8ChVaxLTV0-58" style="edgeStyle=orthogonalEdgeStyle;rounded=0;orthogonalLoop=1;jettySize=auto;html=1;" parent="1" source="EiMYRc3BGC8ChVaxLTV0-62" target="EiMYRc3BGC8ChVaxLTV0-61" edge="1">
          <mxGeometry relative="1" as="geometry">
            <mxPoint x="880" y="510" as="sourcePoint" />
          </mxGeometry>
        </mxCell>
        <mxCell id="EiMYRc3BGC8ChVaxLTV0-59" style="edgeStyle=orthogonalEdgeStyle;rounded=0;orthogonalLoop=1;jettySize=auto;html=1;" parent="1" source="EiMYRc3BGC8ChVaxLTV0-60" target="EiMYRc3BGC8ChVaxLTV0-52" edge="1">
          <mxGeometry relative="1" as="geometry">
            <mxPoint x="360" y="510" as="sourcePoint" />
          </mxGeometry>
        </mxCell>
        <mxCell id="EiMYRc3BGC8ChVaxLTV0-60" value="Start" style="strokeWidth=2;html=1;shape=mxgraph.flowchart.terminator;whiteSpace=wrap;" parent="1" vertex="1">
          <mxGeometry x="260" y="480" width="100" height="60" as="geometry" />
        </mxCell>
        <mxCell id="EiMYRc3BGC8ChVaxLTV0-61" value="End" style="strokeWidth=2;html=1;shape=mxgraph.flowchart.terminator;whiteSpace=wrap;" parent="1" vertex="1">
          <mxGeometry x="940" y="480" width="100" height="60" as="geometry" />
        </mxCell>
        <mxCell id="EiMYRc3BGC8ChVaxLTV0-62" value="&lt;div&gt;&lt;br&gt;&lt;/div&gt;Delete Data User" style="strokeWidth=2;html=1;shape=mxgraph.flowchart.database;whiteSpace=wrap;" parent="1" vertex="1">
          <mxGeometry x="785" y="470" width="70" height="80" as="geometry" />
        </mxCell>
        <mxCell id="EiMYRc3BGC8ChVaxLTV0-63" value="" style="edgeStyle=orthogonalEdgeStyle;rounded=0;orthogonalLoop=1;jettySize=auto;html=1;" parent="1" source="EiMYRc3BGC8ChVaxLTV0-64" target="EiMYRc3BGC8ChVaxLTV0-69" edge="1">
          <mxGeometry relative="1" as="geometry" />
        </mxCell>
        <mxCell id="EiMYRc3BGC8ChVaxLTV0-64" value="Input nama kategori" style="shape=parallelogram;perimeter=parallelogramPerimeter;whiteSpace=wrap;html=1;fixedSize=1;rounded=1;strokeColor=default;strokeWidth=2;align=center;verticalAlign=middle;arcSize=12;fontFamily=Helvetica;fontSize=12;fontColor=default;fillColor=default;" parent="1" vertex="1">
          <mxGeometry x="405" y="600" width="150" height="60" as="geometry" />
        </mxCell>
        <mxCell id="EiMYRc3BGC8ChVaxLTV0-65" style="edgeStyle=orthogonalEdgeStyle;rounded=0;orthogonalLoop=1;jettySize=auto;html=1;" parent="1" source="EiMYRc3BGC8ChVaxLTV0-69" target="EiMYRc3BGC8ChVaxLTV0-64" edge="1">
          <mxGeometry relative="1" as="geometry">
            <Array as="points">
              <mxPoint x="640" y="680" />
              <mxPoint x="490" y="680" />
            </Array>
          </mxGeometry>
        </mxCell>
        <mxCell id="EiMYRc3BGC8ChVaxLTV0-66" value="False" style="edgeLabel;html=1;align=center;verticalAlign=middle;resizable=0;points=[];" parent="EiMYRc3BGC8ChVaxLTV0-65" vertex="1" connectable="0">
          <mxGeometry x="-0.2243" y="1" relative="1" as="geometry">
            <mxPoint x="-20" y="-1" as="offset" />
          </mxGeometry>
        </mxCell>
        <mxCell id="EiMYRc3BGC8ChVaxLTV0-67" value="" style="edgeStyle=orthogonalEdgeStyle;rounded=0;orthogonalLoop=1;jettySize=auto;html=1;" parent="1" source="EiMYRc3BGC8ChVaxLTV0-69" target="EiMYRc3BGC8ChVaxLTV0-74" edge="1">
          <mxGeometry relative="1" as="geometry">
            <mxPoint x="760" y="630" as="targetPoint" />
          </mxGeometry>
        </mxCell>
        <mxCell id="EiMYRc3BGC8ChVaxLTV0-68" value="True" style="edgeLabel;html=1;align=center;verticalAlign=middle;resizable=0;points=[];" parent="EiMYRc3BGC8ChVaxLTV0-67" vertex="1" connectable="0">
          <mxGeometry x="-0.6067" y="-2" relative="1" as="geometry">
            <mxPoint x="14" y="-2" as="offset" />
          </mxGeometry>
        </mxCell>
        <mxCell id="EiMYRc3BGC8ChVaxLTV0-69" value="Validasi" style="rhombus;whiteSpace=wrap;html=1;strokeColor=default;strokeWidth=2;align=center;verticalAlign=middle;fontFamily=Helvetica;fontSize=12;fontColor=default;fillColor=default;" parent="1" vertex="1">
          <mxGeometry x="600" y="590" width="80" height="80" as="geometry" />
        </mxCell>
        <mxCell id="EiMYRc3BGC8ChVaxLTV0-70" style="edgeStyle=orthogonalEdgeStyle;rounded=0;orthogonalLoop=1;jettySize=auto;html=1;" parent="1" source="EiMYRc3BGC8ChVaxLTV0-74" target="EiMYRc3BGC8ChVaxLTV0-73" edge="1">
          <mxGeometry relative="1" as="geometry">
            <mxPoint x="880" y="630" as="sourcePoint" />
          </mxGeometry>
        </mxCell>
        <mxCell id="EiMYRc3BGC8ChVaxLTV0-71" style="edgeStyle=orthogonalEdgeStyle;rounded=0;orthogonalLoop=1;jettySize=auto;html=1;" parent="1" source="EiMYRc3BGC8ChVaxLTV0-72" target="EiMYRc3BGC8ChVaxLTV0-64" edge="1">
          <mxGeometry relative="1" as="geometry">
            <mxPoint x="360" y="630" as="sourcePoint" />
          </mxGeometry>
        </mxCell>
        <mxCell id="EiMYRc3BGC8ChVaxLTV0-72" value="Start" style="strokeWidth=2;html=1;shape=mxgraph.flowchart.terminator;whiteSpace=wrap;" parent="1" vertex="1">
          <mxGeometry x="260" y="600" width="100" height="60" as="geometry" />
        </mxCell>
        <mxCell id="EiMYRc3BGC8ChVaxLTV0-73" value="End" style="strokeWidth=2;html=1;shape=mxgraph.flowchart.terminator;whiteSpace=wrap;" parent="1" vertex="1">
          <mxGeometry x="940" y="600" width="100" height="60" as="geometry" />
        </mxCell>
        <mxCell id="EiMYRc3BGC8ChVaxLTV0-74" value="&lt;div&gt;&lt;br&gt;&lt;/div&gt;Insert Data Kategori" style="strokeWidth=2;html=1;shape=mxgraph.flowchart.database;whiteSpace=wrap;" parent="1" vertex="1">
          <mxGeometry x="785" y="590" width="70" height="80" as="geometry" />
        </mxCell>
        <mxCell id="EiMYRc3BGC8ChVaxLTV0-75" value="" style="edgeStyle=orthogonalEdgeStyle;rounded=0;orthogonalLoop=1;jettySize=auto;html=1;" parent="1" source="EiMYRc3BGC8ChVaxLTV0-76" target="EiMYRc3BGC8ChVaxLTV0-81" edge="1">
          <mxGeometry relative="1" as="geometry" />
        </mxCell>
        <mxCell id="EiMYRc3BGC8ChVaxLTV0-76" value="Input nama baru" style="shape=parallelogram;perimeter=parallelogramPerimeter;whiteSpace=wrap;html=1;fixedSize=1;rounded=1;strokeColor=default;strokeWidth=2;align=center;verticalAlign=middle;arcSize=12;fontFamily=Helvetica;fontSize=12;fontColor=default;fillColor=default;" parent="1" vertex="1">
          <mxGeometry x="405" y="720" width="150" height="60" as="geometry" />
        </mxCell>
        <mxCell id="EiMYRc3BGC8ChVaxLTV0-77" style="edgeStyle=orthogonalEdgeStyle;rounded=0;orthogonalLoop=1;jettySize=auto;html=1;" parent="1" source="EiMYRc3BGC8ChVaxLTV0-81" target="EiMYRc3BGC8ChVaxLTV0-76" edge="1">
          <mxGeometry relative="1" as="geometry">
            <Array as="points">
              <mxPoint x="640" y="800" />
              <mxPoint x="490" y="800" />
            </Array>
          </mxGeometry>
        </mxCell>
        <mxCell id="EiMYRc3BGC8ChVaxLTV0-78" value="False" style="edgeLabel;html=1;align=center;verticalAlign=middle;resizable=0;points=[];" parent="EiMYRc3BGC8ChVaxLTV0-77" vertex="1" connectable="0">
          <mxGeometry x="-0.2243" y="1" relative="1" as="geometry">
            <mxPoint x="-20" y="-1" as="offset" />
          </mxGeometry>
        </mxCell>
        <mxCell id="EiMYRc3BGC8ChVaxLTV0-79" value="" style="edgeStyle=orthogonalEdgeStyle;rounded=0;orthogonalLoop=1;jettySize=auto;html=1;" parent="1" source="EiMYRc3BGC8ChVaxLTV0-81" target="EiMYRc3BGC8ChVaxLTV0-86" edge="1">
          <mxGeometry relative="1" as="geometry">
            <mxPoint x="760" y="750" as="targetPoint" />
          </mxGeometry>
        </mxCell>
        <mxCell id="EiMYRc3BGC8ChVaxLTV0-80" value="True" style="edgeLabel;html=1;align=center;verticalAlign=middle;resizable=0;points=[];" parent="EiMYRc3BGC8ChVaxLTV0-79" vertex="1" connectable="0">
          <mxGeometry x="-0.6067" y="-2" relative="1" as="geometry">
            <mxPoint x="14" y="-2" as="offset" />
          </mxGeometry>
        </mxCell>
        <mxCell id="EiMYRc3BGC8ChVaxLTV0-81" value="Validasi" style="rhombus;whiteSpace=wrap;html=1;strokeColor=default;strokeWidth=2;align=center;verticalAlign=middle;fontFamily=Helvetica;fontSize=12;fontColor=default;fillColor=default;" parent="1" vertex="1">
          <mxGeometry x="600" y="710" width="80" height="80" as="geometry" />
        </mxCell>
        <mxCell id="EiMYRc3BGC8ChVaxLTV0-82" style="edgeStyle=orthogonalEdgeStyle;rounded=0;orthogonalLoop=1;jettySize=auto;html=1;" parent="1" source="EiMYRc3BGC8ChVaxLTV0-86" target="EiMYRc3BGC8ChVaxLTV0-85" edge="1">
          <mxGeometry relative="1" as="geometry">
            <mxPoint x="880" y="750" as="sourcePoint" />
          </mxGeometry>
        </mxCell>
        <mxCell id="EiMYRc3BGC8ChVaxLTV0-83" style="edgeStyle=orthogonalEdgeStyle;rounded=0;orthogonalLoop=1;jettySize=auto;html=1;" parent="1" source="EiMYRc3BGC8ChVaxLTV0-84" target="EiMYRc3BGC8ChVaxLTV0-76" edge="1">
          <mxGeometry relative="1" as="geometry">
            <mxPoint x="360" y="750" as="sourcePoint" />
          </mxGeometry>
        </mxCell>
        <mxCell id="EiMYRc3BGC8ChVaxLTV0-84" value="Start" style="strokeWidth=2;html=1;shape=mxgraph.flowchart.terminator;whiteSpace=wrap;" parent="1" vertex="1">
          <mxGeometry x="260" y="720" width="100" height="60" as="geometry" />
        </mxCell>
        <mxCell id="EiMYRc3BGC8ChVaxLTV0-85" value="End" style="strokeWidth=2;html=1;shape=mxgraph.flowchart.terminator;whiteSpace=wrap;" parent="1" vertex="1">
          <mxGeometry x="940" y="720" width="100" height="60" as="geometry" />
        </mxCell>
        <mxCell id="EiMYRc3BGC8ChVaxLTV0-86" value="&lt;div&gt;&lt;/div&gt;&lt;div&gt;&lt;br&gt;&lt;/div&gt;&lt;div&gt;Update Data Kategori&lt;br&gt;&lt;/div&gt;" style="strokeWidth=2;html=1;shape=mxgraph.flowchart.database;whiteSpace=wrap;" parent="1" vertex="1">
          <mxGeometry x="785" y="710" width="70" height="80" as="geometry" />
        </mxCell>
        <mxCell id="EiMYRc3BGC8ChVaxLTV0-87" value="" style="edgeStyle=orthogonalEdgeStyle;rounded=0;orthogonalLoop=1;jettySize=auto;html=1;" parent="1" source="EiMYRc3BGC8ChVaxLTV0-88" target="EiMYRc3BGC8ChVaxLTV0-93" edge="1">
          <mxGeometry relative="1" as="geometry" />
        </mxCell>
        <mxCell id="EiMYRc3BGC8ChVaxLTV0-88" value="Input id kategori" style="shape=parallelogram;perimeter=parallelogramPerimeter;whiteSpace=wrap;html=1;fixedSize=1;rounded=1;strokeColor=default;strokeWidth=2;align=center;verticalAlign=middle;arcSize=12;fontFamily=Helvetica;fontSize=12;fontColor=default;fillColor=default;" parent="1" vertex="1">
          <mxGeometry x="405" y="840" width="150" height="60" as="geometry" />
        </mxCell>
        <mxCell id="EiMYRc3BGC8ChVaxLTV0-89" style="edgeStyle=orthogonalEdgeStyle;rounded=0;orthogonalLoop=1;jettySize=auto;html=1;" parent="1" source="EiMYRc3BGC8ChVaxLTV0-93" target="EiMYRc3BGC8ChVaxLTV0-88" edge="1">
          <mxGeometry relative="1" as="geometry">
            <Array as="points">
              <mxPoint x="640" y="920" />
              <mxPoint x="490" y="920" />
            </Array>
          </mxGeometry>
        </mxCell>
        <mxCell id="EiMYRc3BGC8ChVaxLTV0-90" value="False" style="edgeLabel;html=1;align=center;verticalAlign=middle;resizable=0;points=[];" parent="EiMYRc3BGC8ChVaxLTV0-89" vertex="1" connectable="0">
          <mxGeometry x="-0.2243" y="1" relative="1" as="geometry">
            <mxPoint x="-20" y="-1" as="offset" />
          </mxGeometry>
        </mxCell>
        <mxCell id="EiMYRc3BGC8ChVaxLTV0-91" value="" style="edgeStyle=orthogonalEdgeStyle;rounded=0;orthogonalLoop=1;jettySize=auto;html=1;" parent="1" source="EiMYRc3BGC8ChVaxLTV0-93" target="EiMYRc3BGC8ChVaxLTV0-98" edge="1">
          <mxGeometry relative="1" as="geometry">
            <mxPoint x="760" y="870" as="targetPoint" />
          </mxGeometry>
        </mxCell>
        <mxCell id="EiMYRc3BGC8ChVaxLTV0-92" value="True" style="edgeLabel;html=1;align=center;verticalAlign=middle;resizable=0;points=[];" parent="EiMYRc3BGC8ChVaxLTV0-91" vertex="1" connectable="0">
          <mxGeometry x="-0.6067" y="-2" relative="1" as="geometry">
            <mxPoint x="14" y="-2" as="offset" />
          </mxGeometry>
        </mxCell>
        <mxCell id="EiMYRc3BGC8ChVaxLTV0-93" value="Konfirmasi" style="rhombus;whiteSpace=wrap;html=1;strokeColor=default;strokeWidth=2;align=center;verticalAlign=middle;fontFamily=Helvetica;fontSize=12;fontColor=default;fillColor=default;" parent="1" vertex="1">
          <mxGeometry x="600" y="830" width="80" height="80" as="geometry" />
        </mxCell>
        <mxCell id="EiMYRc3BGC8ChVaxLTV0-94" style="edgeStyle=orthogonalEdgeStyle;rounded=0;orthogonalLoop=1;jettySize=auto;html=1;" parent="1" source="EiMYRc3BGC8ChVaxLTV0-98" target="EiMYRc3BGC8ChVaxLTV0-97" edge="1">
          <mxGeometry relative="1" as="geometry">
            <mxPoint x="880" y="870" as="sourcePoint" />
          </mxGeometry>
        </mxCell>
        <mxCell id="EiMYRc3BGC8ChVaxLTV0-95" style="edgeStyle=orthogonalEdgeStyle;rounded=0;orthogonalLoop=1;jettySize=auto;html=1;" parent="1" source="EiMYRc3BGC8ChVaxLTV0-96" target="EiMYRc3BGC8ChVaxLTV0-88" edge="1">
          <mxGeometry relative="1" as="geometry">
            <mxPoint x="360" y="870" as="sourcePoint" />
          </mxGeometry>
        </mxCell>
        <mxCell id="EiMYRc3BGC8ChVaxLTV0-96" value="Start" style="strokeWidth=2;html=1;shape=mxgraph.flowchart.terminator;whiteSpace=wrap;" parent="1" vertex="1">
          <mxGeometry x="260" y="840" width="100" height="60" as="geometry" />
        </mxCell>
        <mxCell id="EiMYRc3BGC8ChVaxLTV0-97" value="End" style="strokeWidth=2;html=1;shape=mxgraph.flowchart.terminator;whiteSpace=wrap;" parent="1" vertex="1">
          <mxGeometry x="940" y="840" width="100" height="60" as="geometry" />
        </mxCell>
        <mxCell id="EiMYRc3BGC8ChVaxLTV0-98" value="&lt;div&gt;&lt;br&gt;&lt;/div&gt;Delete Data Kategori" style="strokeWidth=2;html=1;shape=mxgraph.flowchart.database;whiteSpace=wrap;" parent="1" vertex="1">
          <mxGeometry x="785" y="830" width="70" height="80" as="geometry" />
        </mxCell>
        <mxCell id="EiMYRc3BGC8ChVaxLTV0-99" value="" style="edgeStyle=orthogonalEdgeStyle;rounded=0;orthogonalLoop=1;jettySize=auto;html=1;" parent="1" source="EiMYRc3BGC8ChVaxLTV0-100" target="EiMYRc3BGC8ChVaxLTV0-105" edge="1">
          <mxGeometry relative="1" as="geometry" />
        </mxCell>
        <mxCell id="EiMYRc3BGC8ChVaxLTV0-100" value="Input nama, kategori, deskripsi, gambar&lt;div&gt;produk&lt;/div&gt;" style="shape=parallelogram;perimeter=parallelogramPerimeter;whiteSpace=wrap;html=1;fixedSize=1;rounded=1;strokeColor=default;strokeWidth=2;align=center;verticalAlign=middle;arcSize=12;fontFamily=Helvetica;fontSize=12;fontColor=default;fillColor=default;" parent="1" vertex="1">
          <mxGeometry x="405" y="960" width="150" height="60" as="geometry" />
        </mxCell>
        <mxCell id="EiMYRc3BGC8ChVaxLTV0-101" style="edgeStyle=orthogonalEdgeStyle;rounded=0;orthogonalLoop=1;jettySize=auto;html=1;" parent="1" source="EiMYRc3BGC8ChVaxLTV0-105" target="EiMYRc3BGC8ChVaxLTV0-100" edge="1">
          <mxGeometry relative="1" as="geometry">
            <Array as="points">
              <mxPoint x="640" y="1040" />
              <mxPoint x="490" y="1040" />
            </Array>
          </mxGeometry>
        </mxCell>
        <mxCell id="EiMYRc3BGC8ChVaxLTV0-102" value="False" style="edgeLabel;html=1;align=center;verticalAlign=middle;resizable=0;points=[];" parent="EiMYRc3BGC8ChVaxLTV0-101" vertex="1" connectable="0">
          <mxGeometry x="-0.2243" y="1" relative="1" as="geometry">
            <mxPoint x="-20" y="-1" as="offset" />
          </mxGeometry>
        </mxCell>
        <mxCell id="EiMYRc3BGC8ChVaxLTV0-103" value="" style="edgeStyle=orthogonalEdgeStyle;rounded=0;orthogonalLoop=1;jettySize=auto;html=1;" parent="1" source="EiMYRc3BGC8ChVaxLTV0-105" target="EiMYRc3BGC8ChVaxLTV0-110" edge="1">
          <mxGeometry relative="1" as="geometry">
            <mxPoint x="760" y="990" as="targetPoint" />
          </mxGeometry>
        </mxCell>
        <mxCell id="EiMYRc3BGC8ChVaxLTV0-104" value="True" style="edgeLabel;html=1;align=center;verticalAlign=middle;resizable=0;points=[];" parent="EiMYRc3BGC8ChVaxLTV0-103" vertex="1" connectable="0">
          <mxGeometry x="-0.6067" y="-2" relative="1" as="geometry">
            <mxPoint x="14" y="-2" as="offset" />
          </mxGeometry>
        </mxCell>
        <mxCell id="EiMYRc3BGC8ChVaxLTV0-105" value="Validasi" style="rhombus;whiteSpace=wrap;html=1;strokeColor=default;strokeWidth=2;align=center;verticalAlign=middle;fontFamily=Helvetica;fontSize=12;fontColor=default;fillColor=default;" parent="1" vertex="1">
          <mxGeometry x="600" y="950" width="80" height="80" as="geometry" />
        </mxCell>
        <mxCell id="EiMYRc3BGC8ChVaxLTV0-106" style="edgeStyle=orthogonalEdgeStyle;rounded=0;orthogonalLoop=1;jettySize=auto;html=1;" parent="1" source="EiMYRc3BGC8ChVaxLTV0-110" target="EiMYRc3BGC8ChVaxLTV0-109" edge="1">
          <mxGeometry relative="1" as="geometry">
            <mxPoint x="880" y="990" as="sourcePoint" />
          </mxGeometry>
        </mxCell>
        <mxCell id="EiMYRc3BGC8ChVaxLTV0-107" style="edgeStyle=orthogonalEdgeStyle;rounded=0;orthogonalLoop=1;jettySize=auto;html=1;" parent="1" source="EiMYRc3BGC8ChVaxLTV0-108" target="EiMYRc3BGC8ChVaxLTV0-100" edge="1">
          <mxGeometry relative="1" as="geometry">
            <mxPoint x="360" y="990" as="sourcePoint" />
          </mxGeometry>
        </mxCell>
        <mxCell id="EiMYRc3BGC8ChVaxLTV0-108" value="Start" style="strokeWidth=2;html=1;shape=mxgraph.flowchart.terminator;whiteSpace=wrap;" parent="1" vertex="1">
          <mxGeometry x="260" y="960" width="100" height="60" as="geometry" />
        </mxCell>
        <mxCell id="EiMYRc3BGC8ChVaxLTV0-109" value="End" style="strokeWidth=2;html=1;shape=mxgraph.flowchart.terminator;whiteSpace=wrap;" parent="1" vertex="1">
          <mxGeometry x="940" y="960" width="100" height="60" as="geometry" />
        </mxCell>
        <mxCell id="EiMYRc3BGC8ChVaxLTV0-110" value="&lt;div&gt;&lt;br&gt;&lt;/div&gt;Insert Data Produk" style="strokeWidth=2;html=1;shape=mxgraph.flowchart.database;whiteSpace=wrap;" parent="1" vertex="1">
          <mxGeometry x="785" y="950" width="70" height="80" as="geometry" />
        </mxCell>
        <mxCell id="EiMYRc3BGC8ChVaxLTV0-111" value="" style="edgeStyle=orthogonalEdgeStyle;rounded=0;orthogonalLoop=1;jettySize=auto;html=1;" parent="1" source="EiMYRc3BGC8ChVaxLTV0-112" target="EiMYRc3BGC8ChVaxLTV0-117" edge="1">
          <mxGeometry relative="1" as="geometry" />
        </mxCell>
        <mxCell id="EiMYRc3BGC8ChVaxLTV0-112" value="Input nama, kategori, deskripsi, gambar&lt;div&gt;produk baru&lt;/div&gt;" style="shape=parallelogram;perimeter=parallelogramPerimeter;whiteSpace=wrap;html=1;fixedSize=1;rounded=1;strokeColor=default;strokeWidth=2;align=center;verticalAlign=middle;arcSize=12;fontFamily=Helvetica;fontSize=12;fontColor=default;fillColor=default;" parent="1" vertex="1">
          <mxGeometry x="405" y="1080" width="150" height="60" as="geometry" />
        </mxCell>
        <mxCell id="EiMYRc3BGC8ChVaxLTV0-113" style="edgeStyle=orthogonalEdgeStyle;rounded=0;orthogonalLoop=1;jettySize=auto;html=1;" parent="1" source="EiMYRc3BGC8ChVaxLTV0-117" target="EiMYRc3BGC8ChVaxLTV0-112" edge="1">
          <mxGeometry relative="1" as="geometry">
            <Array as="points">
              <mxPoint x="640" y="1160" />
              <mxPoint x="490" y="1160" />
            </Array>
          </mxGeometry>
        </mxCell>
        <mxCell id="EiMYRc3BGC8ChVaxLTV0-114" value="False" style="edgeLabel;html=1;align=center;verticalAlign=middle;resizable=0;points=[];" parent="EiMYRc3BGC8ChVaxLTV0-113" vertex="1" connectable="0">
          <mxGeometry x="-0.2243" y="1" relative="1" as="geometry">
            <mxPoint x="-20" y="-1" as="offset" />
          </mxGeometry>
        </mxCell>
        <mxCell id="EiMYRc3BGC8ChVaxLTV0-115" value="" style="edgeStyle=orthogonalEdgeStyle;rounded=0;orthogonalLoop=1;jettySize=auto;html=1;" parent="1" source="EiMYRc3BGC8ChVaxLTV0-117" target="EiMYRc3BGC8ChVaxLTV0-122" edge="1">
          <mxGeometry relative="1" as="geometry">
            <mxPoint x="760" y="1110" as="targetPoint" />
          </mxGeometry>
        </mxCell>
        <mxCell id="EiMYRc3BGC8ChVaxLTV0-116" value="True" style="edgeLabel;html=1;align=center;verticalAlign=middle;resizable=0;points=[];" parent="EiMYRc3BGC8ChVaxLTV0-115" vertex="1" connectable="0">
          <mxGeometry x="-0.6067" y="-2" relative="1" as="geometry">
            <mxPoint x="14" y="-2" as="offset" />
          </mxGeometry>
        </mxCell>
        <mxCell id="EiMYRc3BGC8ChVaxLTV0-117" value="Validasi" style="rhombus;whiteSpace=wrap;html=1;strokeColor=default;strokeWidth=2;align=center;verticalAlign=middle;fontFamily=Helvetica;fontSize=12;fontColor=default;fillColor=default;" parent="1" vertex="1">
          <mxGeometry x="600" y="1070" width="80" height="80" as="geometry" />
        </mxCell>
        <mxCell id="EiMYRc3BGC8ChVaxLTV0-118" style="edgeStyle=orthogonalEdgeStyle;rounded=0;orthogonalLoop=1;jettySize=auto;html=1;" parent="1" source="EiMYRc3BGC8ChVaxLTV0-122" target="EiMYRc3BGC8ChVaxLTV0-121" edge="1">
          <mxGeometry relative="1" as="geometry">
            <mxPoint x="880" y="1110" as="sourcePoint" />
          </mxGeometry>
        </mxCell>
        <mxCell id="EiMYRc3BGC8ChVaxLTV0-119" style="edgeStyle=orthogonalEdgeStyle;rounded=0;orthogonalLoop=1;jettySize=auto;html=1;" parent="1" source="EiMYRc3BGC8ChVaxLTV0-120" target="EiMYRc3BGC8ChVaxLTV0-112" edge="1">
          <mxGeometry relative="1" as="geometry">
            <mxPoint x="360" y="1110" as="sourcePoint" />
          </mxGeometry>
        </mxCell>
        <mxCell id="EiMYRc3BGC8ChVaxLTV0-120" value="Start" style="strokeWidth=2;html=1;shape=mxgraph.flowchart.terminator;whiteSpace=wrap;" parent="1" vertex="1">
          <mxGeometry x="260" y="1080" width="100" height="60" as="geometry" />
        </mxCell>
        <mxCell id="EiMYRc3BGC8ChVaxLTV0-121" value="End" style="strokeWidth=2;html=1;shape=mxgraph.flowchart.terminator;whiteSpace=wrap;" parent="1" vertex="1">
          <mxGeometry x="940" y="1080" width="100" height="60" as="geometry" />
        </mxCell>
        <mxCell id="EiMYRc3BGC8ChVaxLTV0-122" value="&lt;div&gt;&lt;br&gt;&lt;/div&gt;Update Data Produk" style="strokeWidth=2;html=1;shape=mxgraph.flowchart.database;whiteSpace=wrap;" parent="1" vertex="1">
          <mxGeometry x="785" y="1070" width="70" height="80" as="geometry" />
        </mxCell>
        <mxCell id="EiMYRc3BGC8ChVaxLTV0-123" value="" style="edgeStyle=orthogonalEdgeStyle;rounded=0;orthogonalLoop=1;jettySize=auto;html=1;" parent="1" source="EiMYRc3BGC8ChVaxLTV0-124" target="EiMYRc3BGC8ChVaxLTV0-129" edge="1">
          <mxGeometry relative="1" as="geometry" />
        </mxCell>
        <mxCell id="EiMYRc3BGC8ChVaxLTV0-124" value="Input id produk" style="shape=parallelogram;perimeter=parallelogramPerimeter;whiteSpace=wrap;html=1;fixedSize=1;rounded=1;strokeColor=default;strokeWidth=2;align=center;verticalAlign=middle;arcSize=12;fontFamily=Helvetica;fontSize=12;fontColor=default;fillColor=default;" parent="1" vertex="1">
          <mxGeometry x="405" y="1200" width="150" height="60" as="geometry" />
        </mxCell>
        <mxCell id="EiMYRc3BGC8ChVaxLTV0-125" style="edgeStyle=orthogonalEdgeStyle;rounded=0;orthogonalLoop=1;jettySize=auto;html=1;" parent="1" source="EiMYRc3BGC8ChVaxLTV0-129" target="EiMYRc3BGC8ChVaxLTV0-124" edge="1">
          <mxGeometry relative="1" as="geometry">
            <Array as="points">
              <mxPoint x="640" y="1280" />
              <mxPoint x="490" y="1280" />
            </Array>
          </mxGeometry>
        </mxCell>
        <mxCell id="EiMYRc3BGC8ChVaxLTV0-126" value="False" style="edgeLabel;html=1;align=center;verticalAlign=middle;resizable=0;points=[];" parent="EiMYRc3BGC8ChVaxLTV0-125" vertex="1" connectable="0">
          <mxGeometry x="-0.2243" y="1" relative="1" as="geometry">
            <mxPoint x="-20" y="-1" as="offset" />
          </mxGeometry>
        </mxCell>
        <mxCell id="EiMYRc3BGC8ChVaxLTV0-127" value="" style="edgeStyle=orthogonalEdgeStyle;rounded=0;orthogonalLoop=1;jettySize=auto;html=1;" parent="1" source="EiMYRc3BGC8ChVaxLTV0-129" target="EiMYRc3BGC8ChVaxLTV0-134" edge="1">
          <mxGeometry relative="1" as="geometry">
            <mxPoint x="760" y="1230" as="targetPoint" />
          </mxGeometry>
        </mxCell>
        <mxCell id="EiMYRc3BGC8ChVaxLTV0-128" value="True" style="edgeLabel;html=1;align=center;verticalAlign=middle;resizable=0;points=[];" parent="EiMYRc3BGC8ChVaxLTV0-127" vertex="1" connectable="0">
          <mxGeometry x="-0.6067" y="-2" relative="1" as="geometry">
            <mxPoint x="14" y="-2" as="offset" />
          </mxGeometry>
        </mxCell>
        <mxCell id="EiMYRc3BGC8ChVaxLTV0-129" value="Konfirmasi" style="rhombus;whiteSpace=wrap;html=1;strokeColor=default;strokeWidth=2;align=center;verticalAlign=middle;fontFamily=Helvetica;fontSize=12;fontColor=default;fillColor=default;" parent="1" vertex="1">
          <mxGeometry x="600" y="1190" width="80" height="80" as="geometry" />
        </mxCell>
        <mxCell id="EiMYRc3BGC8ChVaxLTV0-130" style="edgeStyle=orthogonalEdgeStyle;rounded=0;orthogonalLoop=1;jettySize=auto;html=1;" parent="1" source="EiMYRc3BGC8ChVaxLTV0-134" target="EiMYRc3BGC8ChVaxLTV0-133" edge="1">
          <mxGeometry relative="1" as="geometry">
            <mxPoint x="880" y="1230" as="sourcePoint" />
          </mxGeometry>
        </mxCell>
        <mxCell id="EiMYRc3BGC8ChVaxLTV0-131" style="edgeStyle=orthogonalEdgeStyle;rounded=0;orthogonalLoop=1;jettySize=auto;html=1;" parent="1" source="EiMYRc3BGC8ChVaxLTV0-132" target="EiMYRc3BGC8ChVaxLTV0-124" edge="1">
          <mxGeometry relative="1" as="geometry">
            <mxPoint x="360" y="1230" as="sourcePoint" />
          </mxGeometry>
        </mxCell>
        <mxCell id="EiMYRc3BGC8ChVaxLTV0-132" value="Start" style="strokeWidth=2;html=1;shape=mxgraph.flowchart.terminator;whiteSpace=wrap;" parent="1" vertex="1">
          <mxGeometry x="260" y="1200" width="100" height="60" as="geometry" />
        </mxCell>
        <mxCell id="EiMYRc3BGC8ChVaxLTV0-133" value="End" style="strokeWidth=2;html=1;shape=mxgraph.flowchart.terminator;whiteSpace=wrap;" parent="1" vertex="1">
          <mxGeometry x="940" y="1200" width="100" height="60" as="geometry" />
        </mxCell>
        <mxCell id="EiMYRc3BGC8ChVaxLTV0-134" value="&lt;div&gt;&lt;br&gt;&lt;/div&gt;Delete Data Produk" style="strokeWidth=2;html=1;shape=mxgraph.flowchart.database;whiteSpace=wrap;" parent="1" vertex="1">
          <mxGeometry x="785" y="1190" width="70" height="80" as="geometry" />
        </mxCell>
        <mxCell id="cdZ0ecQucNiZ-IruvXoV-1" value="" style="edgeStyle=orthogonalEdgeStyle;rounded=0;orthogonalLoop=1;jettySize=auto;html=1;" parent="1" source="cdZ0ecQucNiZ-IruvXoV-11" target="cdZ0ecQucNiZ-IruvXoV-55" edge="1">
          <mxGeometry relative="1" as="geometry">
            <mxPoint x="1360" y="380" as="sourcePoint" />
            <mxPoint x="1430" y="380" as="targetPoint" />
          </mxGeometry>
        </mxCell>
        <mxCell id="cdZ0ecQucNiZ-IruvXoV-11" value="Start" style="strokeWidth=2;html=1;shape=mxgraph.flowchart.terminator;whiteSpace=wrap;" parent="1" vertex="1">
          <mxGeometry x="1340" y="370" width="100" height="60" as="geometry" />
        </mxCell>
        <mxCell id="ux9DrI02TPGSGOPqTvtx-30" style="edgeStyle=orthogonalEdgeStyle;rounded=0;orthogonalLoop=1;jettySize=auto;html=1;" edge="1" parent="1" source="cdZ0ecQucNiZ-IruvXoV-15" target="ux9DrI02TPGSGOPqTvtx-1">
          <mxGeometry relative="1" as="geometry">
            <Array as="points">
              <mxPoint x="1850" y="480" />
              <mxPoint x="1205" y="480" />
            </Array>
          </mxGeometry>
        </mxCell>
        <mxCell id="cdZ0ecQucNiZ-IruvXoV-15" value="Dashboard" style="strokeWidth=2;html=1;shape=mxgraph.flowchart.display;whiteSpace=wrap;" parent="1" vertex="1">
          <mxGeometry x="1800" y="370" width="100" height="60" as="geometry" />
        </mxCell>
        <mxCell id="ux9DrI02TPGSGOPqTvtx-22" value="" style="edgeStyle=orthogonalEdgeStyle;rounded=0;orthogonalLoop=1;jettySize=auto;html=1;" edge="1" parent="1" source="cdZ0ecQucNiZ-IruvXoV-16" target="ux9DrI02TPGSGOPqTvtx-21">
          <mxGeometry relative="1" as="geometry" />
        </mxCell>
        <mxCell id="cdZ0ecQucNiZ-IruvXoV-16" value="Kelola User Admin" style="strokeWidth=2;html=1;shape=mxgraph.flowchart.display;whiteSpace=wrap;" parent="1" vertex="1">
          <mxGeometry x="1155" y="650" width="100" height="60" as="geometry" />
        </mxCell>
        <mxCell id="cdZ0ecQucNiZ-IruvXoV-17" value="Kelola Kategori Produk" style="strokeWidth=2;html=1;shape=mxgraph.flowchart.display;whiteSpace=wrap;" parent="1" vertex="1">
          <mxGeometry x="1495" y="650" width="100" height="60" as="geometry" />
        </mxCell>
        <mxCell id="cdZ0ecQucNiZ-IruvXoV-18" value="Kelola Produk" style="strokeWidth=2;html=1;shape=mxgraph.flowchart.display;whiteSpace=wrap;" parent="1" vertex="1">
          <mxGeometry x="1855" y="650" width="100" height="60" as="geometry" />
        </mxCell>
        <mxCell id="cdZ0ecQucNiZ-IruvXoV-50" style="edgeStyle=orthogonalEdgeStyle;rounded=0;orthogonalLoop=1;jettySize=auto;html=1;" parent="1" source="cdZ0ecQucNiZ-IruvXoV-19" target="cdZ0ecQucNiZ-IruvXoV-49" edge="1">
          <mxGeometry relative="1" as="geometry" />
        </mxCell>
        <mxCell id="cdZ0ecQucNiZ-IruvXoV-19" value="Logout" style="whiteSpace=wrap;html=1;rounded=1;strokeColor=default;strokeWidth=2;align=center;verticalAlign=middle;arcSize=14;fontFamily=Helvetica;fontSize=12;fontColor=default;fillColor=default;" parent="1" vertex="1">
          <mxGeometry x="1565" y="1270" width="120" height="60" as="geometry" />
        </mxCell>
        <mxCell id="ux9DrI02TPGSGOPqTvtx-76" style="edgeStyle=orthogonalEdgeStyle;rounded=0;orthogonalLoop=1;jettySize=auto;html=1;" edge="1" parent="1" source="cdZ0ecQucNiZ-IruvXoV-20" target="cdZ0ecQucNiZ-IruvXoV-16">
          <mxGeometry relative="1" as="geometry">
            <Array as="points">
              <mxPoint x="1440" y="790" />
              <mxPoint x="1440" y="680" />
            </Array>
          </mxGeometry>
        </mxCell>
        <mxCell id="cdZ0ecQucNiZ-IruvXoV-20" value="Tambah Data User Admin" style="whiteSpace=wrap;html=1;rounded=1;strokeColor=default;strokeWidth=2;align=center;verticalAlign=middle;arcSize=14;fontFamily=Helvetica;fontSize=12;fontColor=default;fillColor=default;" parent="1" vertex="1">
          <mxGeometry x="1290" y="760" width="120" height="60" as="geometry" />
        </mxCell>
        <mxCell id="ux9DrI02TPGSGOPqTvtx-75" style="edgeStyle=orthogonalEdgeStyle;rounded=0;orthogonalLoop=1;jettySize=auto;html=1;" edge="1" parent="1" source="cdZ0ecQucNiZ-IruvXoV-21" target="cdZ0ecQucNiZ-IruvXoV-16">
          <mxGeometry relative="1" as="geometry">
            <Array as="points">
              <mxPoint x="1440" y="910" />
              <mxPoint x="1440" y="680" />
            </Array>
          </mxGeometry>
        </mxCell>
        <mxCell id="cdZ0ecQucNiZ-IruvXoV-21" value="Ubah Data User Admin" style="whiteSpace=wrap;html=1;rounded=1;strokeColor=default;strokeWidth=2;align=center;verticalAlign=middle;arcSize=14;fontFamily=Helvetica;fontSize=12;fontColor=default;fillColor=default;" parent="1" vertex="1">
          <mxGeometry x="1290" y="880" width="120" height="60" as="geometry" />
        </mxCell>
        <mxCell id="ux9DrI02TPGSGOPqTvtx-74" style="edgeStyle=orthogonalEdgeStyle;rounded=0;orthogonalLoop=1;jettySize=auto;html=1;" edge="1" parent="1" source="cdZ0ecQucNiZ-IruvXoV-22" target="cdZ0ecQucNiZ-IruvXoV-16">
          <mxGeometry relative="1" as="geometry">
            <Array as="points">
              <mxPoint x="1440" y="1030" />
              <mxPoint x="1440" y="680" />
            </Array>
          </mxGeometry>
        </mxCell>
        <mxCell id="cdZ0ecQucNiZ-IruvXoV-22" value="Hapus Data User ADmin" style="whiteSpace=wrap;html=1;rounded=1;strokeColor=default;strokeWidth=2;align=center;verticalAlign=middle;arcSize=14;fontFamily=Helvetica;fontSize=12;fontColor=default;fillColor=default;" parent="1" vertex="1">
          <mxGeometry x="1290" y="1000" width="120" height="60" as="geometry" />
        </mxCell>
        <mxCell id="ux9DrI02TPGSGOPqTvtx-93" style="edgeStyle=orthogonalEdgeStyle;rounded=0;orthogonalLoop=1;jettySize=auto;html=1;" edge="1" parent="1" source="cdZ0ecQucNiZ-IruvXoV-23" target="cdZ0ecQucNiZ-IruvXoV-17">
          <mxGeometry relative="1" as="geometry">
            <Array as="points">
              <mxPoint x="1790" y="790" />
              <mxPoint x="1790" y="680" />
            </Array>
          </mxGeometry>
        </mxCell>
        <mxCell id="cdZ0ecQucNiZ-IruvXoV-23" value="Tambah Data Kategori Produk" style="whiteSpace=wrap;html=1;rounded=1;strokeColor=default;strokeWidth=2;align=center;verticalAlign=middle;arcSize=14;fontFamily=Helvetica;fontSize=12;fontColor=default;fillColor=default;" parent="1" vertex="1">
          <mxGeometry x="1640" y="760" width="120" height="60" as="geometry" />
        </mxCell>
        <mxCell id="ux9DrI02TPGSGOPqTvtx-94" style="edgeStyle=orthogonalEdgeStyle;rounded=0;orthogonalLoop=1;jettySize=auto;html=1;" edge="1" parent="1" source="cdZ0ecQucNiZ-IruvXoV-24" target="cdZ0ecQucNiZ-IruvXoV-17">
          <mxGeometry relative="1" as="geometry">
            <Array as="points">
              <mxPoint x="1790" y="910" />
              <mxPoint x="1790" y="680" />
            </Array>
          </mxGeometry>
        </mxCell>
        <mxCell id="cdZ0ecQucNiZ-IruvXoV-24" value="Ubah Data Kategori Produk" style="whiteSpace=wrap;html=1;rounded=1;strokeColor=default;strokeWidth=2;align=center;verticalAlign=middle;arcSize=14;fontFamily=Helvetica;fontSize=12;fontColor=default;fillColor=default;" parent="1" vertex="1">
          <mxGeometry x="1640" y="880" width="120" height="60" as="geometry" />
        </mxCell>
        <mxCell id="ux9DrI02TPGSGOPqTvtx-95" style="edgeStyle=orthogonalEdgeStyle;rounded=0;orthogonalLoop=1;jettySize=auto;html=1;" edge="1" parent="1" source="cdZ0ecQucNiZ-IruvXoV-25" target="cdZ0ecQucNiZ-IruvXoV-17">
          <mxGeometry relative="1" as="geometry">
            <Array as="points">
              <mxPoint x="1790" y="1030" />
              <mxPoint x="1790" y="680" />
            </Array>
          </mxGeometry>
        </mxCell>
        <mxCell id="cdZ0ecQucNiZ-IruvXoV-25" value="Hapus Data Kategori Produk" style="whiteSpace=wrap;html=1;rounded=1;strokeColor=default;strokeWidth=2;align=center;verticalAlign=middle;arcSize=14;fontFamily=Helvetica;fontSize=12;fontColor=default;fillColor=default;" parent="1" vertex="1">
          <mxGeometry x="1640" y="1000" width="120" height="60" as="geometry" />
        </mxCell>
        <mxCell id="ux9DrI02TPGSGOPqTvtx-100" style="edgeStyle=orthogonalEdgeStyle;rounded=0;orthogonalLoop=1;jettySize=auto;html=1;" edge="1" parent="1" source="cdZ0ecQucNiZ-IruvXoV-26" target="cdZ0ecQucNiZ-IruvXoV-18">
          <mxGeometry relative="1" as="geometry">
            <Array as="points">
              <mxPoint x="2150" y="1030" />
              <mxPoint x="2150" y="680" />
            </Array>
          </mxGeometry>
        </mxCell>
        <mxCell id="cdZ0ecQucNiZ-IruvXoV-26" value="Hapus Data Produk" style="whiteSpace=wrap;html=1;rounded=1;strokeColor=default;strokeWidth=2;align=center;verticalAlign=middle;arcSize=14;fontFamily=Helvetica;fontSize=12;fontColor=default;fillColor=default;" parent="1" vertex="1">
          <mxGeometry x="2000" y="1000" width="120" height="60" as="geometry" />
        </mxCell>
        <mxCell id="ux9DrI02TPGSGOPqTvtx-99" style="edgeStyle=orthogonalEdgeStyle;rounded=0;orthogonalLoop=1;jettySize=auto;html=1;" edge="1" parent="1" source="cdZ0ecQucNiZ-IruvXoV-27" target="cdZ0ecQucNiZ-IruvXoV-18">
          <mxGeometry relative="1" as="geometry">
            <Array as="points">
              <mxPoint x="2150" y="910" />
              <mxPoint x="2150" y="680" />
            </Array>
          </mxGeometry>
        </mxCell>
        <mxCell id="cdZ0ecQucNiZ-IruvXoV-27" value="Ubah Data Produk" style="whiteSpace=wrap;html=1;rounded=1;strokeColor=default;strokeWidth=2;align=center;verticalAlign=middle;arcSize=14;fontFamily=Helvetica;fontSize=12;fontColor=default;fillColor=default;" parent="1" vertex="1">
          <mxGeometry x="2000" y="880" width="120" height="60" as="geometry" />
        </mxCell>
        <mxCell id="ux9DrI02TPGSGOPqTvtx-98" style="edgeStyle=orthogonalEdgeStyle;rounded=0;orthogonalLoop=1;jettySize=auto;html=1;" edge="1" parent="1" source="cdZ0ecQucNiZ-IruvXoV-28" target="cdZ0ecQucNiZ-IruvXoV-18">
          <mxGeometry relative="1" as="geometry">
            <Array as="points">
              <mxPoint x="2150" y="790" />
              <mxPoint x="2150" y="680" />
            </Array>
          </mxGeometry>
        </mxCell>
        <mxCell id="cdZ0ecQucNiZ-IruvXoV-28" value="Tambah Data Produk" style="whiteSpace=wrap;html=1;rounded=1;strokeColor=default;strokeWidth=2;align=center;verticalAlign=middle;arcSize=14;fontFamily=Helvetica;fontSize=12;fontColor=default;fillColor=default;" parent="1" vertex="1">
          <mxGeometry x="2000" y="760" width="120" height="60" as="geometry" />
        </mxCell>
        <mxCell id="cdZ0ecQucNiZ-IruvXoV-49" value="End" style="strokeWidth=2;html=1;shape=mxgraph.flowchart.terminator;whiteSpace=wrap;" parent="1" vertex="1">
          <mxGeometry x="1575" y="1370" width="100" height="60" as="geometry" />
        </mxCell>
        <mxCell id="cdZ0ecQucNiZ-IruvXoV-56" style="edgeStyle=orthogonalEdgeStyle;rounded=0;orthogonalLoop=1;jettySize=auto;html=1;" parent="1" source="FR1ig15zAx5kyA5m28_K-6" target="cdZ0ecQucNiZ-IruvXoV-15" edge="1">
          <mxGeometry relative="1" as="geometry" />
        </mxCell>
        <mxCell id="FR1ig15zAx5kyA5m28_K-9" value="&lt;font style=&quot;font-size: 12px;&quot;&gt;True&lt;/font&gt;" style="edgeLabel;html=1;align=center;verticalAlign=middle;resizable=0;points=[];fontSize=12;" parent="cdZ0ecQucNiZ-IruvXoV-56" vertex="1" connectable="0">
          <mxGeometry x="-0.2343" y="1" relative="1" as="geometry">
            <mxPoint x="1" as="offset" />
          </mxGeometry>
        </mxCell>
        <mxCell id="FR1ig15zAx5kyA5m28_K-7" value="" style="edgeStyle=orthogonalEdgeStyle;rounded=0;orthogonalLoop=1;jettySize=auto;html=1;" parent="1" source="cdZ0ecQucNiZ-IruvXoV-55" target="FR1ig15zAx5kyA5m28_K-6" edge="1">
          <mxGeometry relative="1" as="geometry" />
        </mxCell>
        <mxCell id="cdZ0ecQucNiZ-IruvXoV-55" value="Login" style="whiteSpace=wrap;html=1;rounded=1;strokeColor=default;strokeWidth=2;align=center;verticalAlign=middle;arcSize=14;fontFamily=Helvetica;fontSize=12;fontColor=default;fillColor=default;" parent="1" vertex="1">
          <mxGeometry x="1490" y="370" width="120" height="60" as="geometry" />
        </mxCell>
        <mxCell id="FR1ig15zAx5kyA5m28_K-1" style="edgeStyle=orthogonalEdgeStyle;rounded=0;orthogonalLoop=1;jettySize=auto;html=1;exitX=0.5;exitY=1;exitDx=0;exitDy=0;" parent="1" source="cdZ0ecQucNiZ-IruvXoV-19" target="cdZ0ecQucNiZ-IruvXoV-19" edge="1">
          <mxGeometry relative="1" as="geometry" />
        </mxCell>
        <mxCell id="FR1ig15zAx5kyA5m28_K-8" value="" style="edgeStyle=orthogonalEdgeStyle;rounded=0;orthogonalLoop=1;jettySize=auto;html=1;" parent="1" source="cdZ0ecQucNiZ-IruvXoV-55" target="FR1ig15zAx5kyA5m28_K-6" edge="1">
          <mxGeometry relative="1" as="geometry">
            <mxPoint x="1620" y="400" as="sourcePoint" />
            <mxPoint x="1800" y="400" as="targetPoint" />
          </mxGeometry>
        </mxCell>
        <mxCell id="FR1ig15zAx5kyA5m28_K-10" style="edgeStyle=orthogonalEdgeStyle;rounded=0;orthogonalLoop=1;jettySize=auto;html=1;" parent="1" source="FR1ig15zAx5kyA5m28_K-6" target="cdZ0ecQucNiZ-IruvXoV-55" edge="1">
          <mxGeometry relative="1" as="geometry">
            <Array as="points">
              <mxPoint x="1700" y="450" />
              <mxPoint x="1560" y="450" />
            </Array>
          </mxGeometry>
        </mxCell>
        <mxCell id="FR1ig15zAx5kyA5m28_K-12" value="&lt;font style=&quot;font-size: 12px;&quot;&gt;False&lt;/font&gt;" style="edgeLabel;html=1;align=center;verticalAlign=middle;resizable=0;points=[];fontSize=12;" parent="FR1ig15zAx5kyA5m28_K-10" vertex="1" connectable="0">
          <mxGeometry x="-0.1333" y="4" relative="1" as="geometry">
            <mxPoint x="-17" y="-4" as="offset" />
          </mxGeometry>
        </mxCell>
        <mxCell id="FR1ig15zAx5kyA5m28_K-6" value="Login&lt;div&gt;Sukses?&lt;/div&gt;" style="rhombus;whiteSpace=wrap;html=1;rounded=1;strokeWidth=2;arcSize=14;" parent="1" vertex="1">
          <mxGeometry x="1660" y="360" width="80" height="80" as="geometry" />
        </mxCell>
        <mxCell id="ux9DrI02TPGSGOPqTvtx-3" style="edgeStyle=orthogonalEdgeStyle;rounded=0;orthogonalLoop=1;jettySize=auto;html=1;" edge="1" parent="1" source="ux9DrI02TPGSGOPqTvtx-1" target="cdZ0ecQucNiZ-IruvXoV-16">
          <mxGeometry relative="1" as="geometry" />
        </mxCell>
        <mxCell id="ux9DrI02TPGSGOPqTvtx-4" value="True" style="edgeLabel;html=1;align=center;verticalAlign=middle;resizable=0;points=[];fontSize=12;" vertex="1" connectable="0" parent="ux9DrI02TPGSGOPqTvtx-3">
          <mxGeometry x="0.296" relative="1" as="geometry">
            <mxPoint y="-13" as="offset" />
          </mxGeometry>
        </mxCell>
        <mxCell id="ux9DrI02TPGSGOPqTvtx-6" style="edgeStyle=orthogonalEdgeStyle;rounded=0;orthogonalLoop=1;jettySize=auto;html=1;" edge="1" parent="1" source="ux9DrI02TPGSGOPqTvtx-1" target="ux9DrI02TPGSGOPqTvtx-5">
          <mxGeometry relative="1" as="geometry" />
        </mxCell>
        <mxCell id="ux9DrI02TPGSGOPqTvtx-7" value="False" style="edgeLabel;html=1;align=center;verticalAlign=middle;resizable=0;points=[];fontSize=12;" vertex="1" connectable="0" parent="ux9DrI02TPGSGOPqTvtx-6">
          <mxGeometry x="0.2028" y="-2" relative="1" as="geometry">
            <mxPoint x="-51" y="-2" as="offset" />
          </mxGeometry>
        </mxCell>
        <mxCell id="ux9DrI02TPGSGOPqTvtx-1" value="Kelola User Admin?" style="rhombus;whiteSpace=wrap;html=1;strokeWidth=2;" vertex="1" parent="1">
          <mxGeometry x="1160" y="520" width="90" height="90" as="geometry" />
        </mxCell>
        <mxCell id="ux9DrI02TPGSGOPqTvtx-8" value="True" style="edgeStyle=orthogonalEdgeStyle;rounded=0;orthogonalLoop=1;jettySize=auto;html=1;fontSize=12;" edge="1" parent="1" source="ux9DrI02TPGSGOPqTvtx-5" target="cdZ0ecQucNiZ-IruvXoV-17">
          <mxGeometry x="-0.5" relative="1" as="geometry">
            <mxPoint y="-1" as="offset" />
          </mxGeometry>
        </mxCell>
        <mxCell id="ux9DrI02TPGSGOPqTvtx-12" style="edgeStyle=orthogonalEdgeStyle;rounded=0;orthogonalLoop=1;jettySize=auto;html=1;" edge="1" parent="1" source="ux9DrI02TPGSGOPqTvtx-5" target="ux9DrI02TPGSGOPqTvtx-9">
          <mxGeometry relative="1" as="geometry" />
        </mxCell>
        <mxCell id="ux9DrI02TPGSGOPqTvtx-18" value="False" style="edgeLabel;html=1;align=center;verticalAlign=middle;resizable=0;points=[];fontSize=12;" vertex="1" connectable="0" parent="ux9DrI02TPGSGOPqTvtx-12">
          <mxGeometry x="0.4143" y="-3" relative="1" as="geometry">
            <mxPoint x="-106" y="-3" as="offset" />
          </mxGeometry>
        </mxCell>
        <mxCell id="ux9DrI02TPGSGOPqTvtx-5" value="Kelola&lt;div&gt;Kategori&lt;/div&gt;&lt;div&gt;Produk?&lt;/div&gt;" style="rhombus;whiteSpace=wrap;html=1;strokeWidth=2;" vertex="1" parent="1">
          <mxGeometry x="1500" y="520" width="90" height="90" as="geometry" />
        </mxCell>
        <mxCell id="ux9DrI02TPGSGOPqTvtx-10" style="edgeStyle=orthogonalEdgeStyle;rounded=0;orthogonalLoop=1;jettySize=auto;html=1;" edge="1" parent="1" source="ux9DrI02TPGSGOPqTvtx-9" target="cdZ0ecQucNiZ-IruvXoV-18">
          <mxGeometry relative="1" as="geometry" />
        </mxCell>
        <mxCell id="ux9DrI02TPGSGOPqTvtx-72" value="True" style="edgeLabel;html=1;align=center;verticalAlign=middle;resizable=0;points=[];fontSize=12;" vertex="1" connectable="0" parent="ux9DrI02TPGSGOPqTvtx-10">
          <mxGeometry x="-0.1929" y="3" relative="1" as="geometry">
            <mxPoint x="-4" y="-1" as="offset" />
          </mxGeometry>
        </mxCell>
        <mxCell id="ux9DrI02TPGSGOPqTvtx-14" style="edgeStyle=orthogonalEdgeStyle;rounded=0;orthogonalLoop=1;jettySize=auto;html=1;" edge="1" parent="1" source="ux9DrI02TPGSGOPqTvtx-9" target="ux9DrI02TPGSGOPqTvtx-13">
          <mxGeometry relative="1" as="geometry">
            <Array as="points" />
          </mxGeometry>
        </mxCell>
        <mxCell id="ux9DrI02TPGSGOPqTvtx-83" value="False" style="edgeLabel;html=1;align=center;verticalAlign=middle;resizable=0;points=[];fontSize=12;" vertex="1" connectable="0" parent="ux9DrI02TPGSGOPqTvtx-14">
          <mxGeometry x="0.2431" y="-1" relative="1" as="geometry">
            <mxPoint x="-44" y="-61" as="offset" />
          </mxGeometry>
        </mxCell>
        <mxCell id="ux9DrI02TPGSGOPqTvtx-9" value="Kelola&lt;div&gt;Produk?&lt;/div&gt;" style="rhombus;whiteSpace=wrap;html=1;strokeWidth=2;" vertex="1" parent="1">
          <mxGeometry x="1860" y="520" width="90" height="90" as="geometry" />
        </mxCell>
        <mxCell id="ux9DrI02TPGSGOPqTvtx-15" style="edgeStyle=orthogonalEdgeStyle;rounded=0;orthogonalLoop=1;jettySize=auto;html=1;" edge="1" parent="1" source="ux9DrI02TPGSGOPqTvtx-13" target="ux9DrI02TPGSGOPqTvtx-105">
          <mxGeometry relative="1" as="geometry">
            <Array as="points">
              <mxPoint x="2200" y="480" />
            </Array>
          </mxGeometry>
        </mxCell>
        <mxCell id="ux9DrI02TPGSGOPqTvtx-102" value="False" style="edgeLabel;html=1;align=center;verticalAlign=middle;resizable=0;points=[];fontSize=12;" vertex="1" connectable="0" parent="ux9DrI02TPGSGOPqTvtx-15">
          <mxGeometry x="-0.8982" y="-1" relative="1" as="geometry">
            <mxPoint x="-1" y="-10" as="offset" />
          </mxGeometry>
        </mxCell>
        <mxCell id="ux9DrI02TPGSGOPqTvtx-90" style="edgeStyle=orthogonalEdgeStyle;rounded=0;orthogonalLoop=1;jettySize=auto;html=1;" edge="1" parent="1" source="ux9DrI02TPGSGOPqTvtx-13" target="cdZ0ecQucNiZ-IruvXoV-19">
          <mxGeometry relative="1" as="geometry">
            <Array as="points">
              <mxPoint x="2200" y="1240" />
              <mxPoint x="1625" y="1240" />
            </Array>
          </mxGeometry>
        </mxCell>
        <mxCell id="ux9DrI02TPGSGOPqTvtx-101" value="True" style="edgeLabel;html=1;align=center;verticalAlign=middle;resizable=0;points=[];fontSize=12;" vertex="1" connectable="0" parent="ux9DrI02TPGSGOPqTvtx-90">
          <mxGeometry x="-0.8714" y="1" relative="1" as="geometry">
            <mxPoint x="-1" y="-36" as="offset" />
          </mxGeometry>
        </mxCell>
        <mxCell id="ux9DrI02TPGSGOPqTvtx-13" value="Keluar&lt;div&gt;Sistem?&lt;/div&gt;" style="rhombus;whiteSpace=wrap;html=1;strokeWidth=2;" vertex="1" parent="1">
          <mxGeometry x="2155" y="580" width="90" height="90" as="geometry" />
        </mxCell>
        <mxCell id="ux9DrI02TPGSGOPqTvtx-23" style="edgeStyle=orthogonalEdgeStyle;rounded=0;orthogonalLoop=1;jettySize=auto;html=1;" edge="1" parent="1" source="ux9DrI02TPGSGOPqTvtx-21" target="cdZ0ecQucNiZ-IruvXoV-20">
          <mxGeometry relative="1" as="geometry" />
        </mxCell>
        <mxCell id="ux9DrI02TPGSGOPqTvtx-32" value="True" style="edgeLabel;html=1;align=center;verticalAlign=middle;resizable=0;points=[];" vertex="1" connectable="0" parent="ux9DrI02TPGSGOPqTvtx-23">
          <mxGeometry x="-0.1187" relative="1" as="geometry">
            <mxPoint as="offset" />
          </mxGeometry>
        </mxCell>
        <mxCell id="ux9DrI02TPGSGOPqTvtx-25" value="" style="edgeStyle=orthogonalEdgeStyle;rounded=0;orthogonalLoop=1;jettySize=auto;html=1;" edge="1" parent="1" source="ux9DrI02TPGSGOPqTvtx-21" target="ux9DrI02TPGSGOPqTvtx-24">
          <mxGeometry relative="1" as="geometry" />
        </mxCell>
        <mxCell id="ux9DrI02TPGSGOPqTvtx-33" value="False" style="edgeLabel;html=1;align=center;verticalAlign=middle;resizable=0;points=[];" vertex="1" connectable="0" parent="ux9DrI02TPGSGOPqTvtx-25">
          <mxGeometry x="-0.2441" relative="1" as="geometry">
            <mxPoint as="offset" />
          </mxGeometry>
        </mxCell>
        <mxCell id="ux9DrI02TPGSGOPqTvtx-21" value="Tambah&lt;div&gt;Data?&lt;/div&gt;" style="rhombus;whiteSpace=wrap;html=1;strokeWidth=2;" vertex="1" parent="1">
          <mxGeometry x="1165" y="750" width="80" height="80" as="geometry" />
        </mxCell>
        <mxCell id="ux9DrI02TPGSGOPqTvtx-26" style="edgeStyle=orthogonalEdgeStyle;rounded=0;orthogonalLoop=1;jettySize=auto;html=1;" edge="1" parent="1" source="ux9DrI02TPGSGOPqTvtx-24" target="cdZ0ecQucNiZ-IruvXoV-21">
          <mxGeometry relative="1" as="geometry" />
        </mxCell>
        <mxCell id="ux9DrI02TPGSGOPqTvtx-34" value="True" style="edgeLabel;html=1;align=center;verticalAlign=middle;resizable=0;points=[];" vertex="1" connectable="0" parent="ux9DrI02TPGSGOPqTvtx-26">
          <mxGeometry x="0.0096" y="1" relative="1" as="geometry">
            <mxPoint x="-4" as="offset" />
          </mxGeometry>
        </mxCell>
        <mxCell id="ux9DrI02TPGSGOPqTvtx-28" value="" style="edgeStyle=orthogonalEdgeStyle;rounded=0;orthogonalLoop=1;jettySize=auto;html=1;" edge="1" parent="1" source="ux9DrI02TPGSGOPqTvtx-24" target="ux9DrI02TPGSGOPqTvtx-27">
          <mxGeometry relative="1" as="geometry" />
        </mxCell>
        <mxCell id="ux9DrI02TPGSGOPqTvtx-35" value="False" style="edgeLabel;html=1;align=center;verticalAlign=middle;resizable=0;points=[];" vertex="1" connectable="0" parent="ux9DrI02TPGSGOPqTvtx-28">
          <mxGeometry x="-0.4206" y="1" relative="1" as="geometry">
            <mxPoint as="offset" />
          </mxGeometry>
        </mxCell>
        <mxCell id="ux9DrI02TPGSGOPqTvtx-24" value="Ubah Data" style="rhombus;whiteSpace=wrap;html=1;strokeWidth=2;" vertex="1" parent="1">
          <mxGeometry x="1165" y="870" width="80" height="80" as="geometry" />
        </mxCell>
        <mxCell id="ux9DrI02TPGSGOPqTvtx-29" style="edgeStyle=orthogonalEdgeStyle;rounded=0;orthogonalLoop=1;jettySize=auto;html=1;" edge="1" parent="1" source="ux9DrI02TPGSGOPqTvtx-27" target="cdZ0ecQucNiZ-IruvXoV-22">
          <mxGeometry relative="1" as="geometry" />
        </mxCell>
        <mxCell id="ux9DrI02TPGSGOPqTvtx-36" value="True" style="edgeLabel;html=1;align=center;verticalAlign=middle;resizable=0;points=[];" vertex="1" connectable="0" parent="ux9DrI02TPGSGOPqTvtx-29">
          <mxGeometry x="0.0096" relative="1" as="geometry">
            <mxPoint x="-5" as="offset" />
          </mxGeometry>
        </mxCell>
        <mxCell id="ux9DrI02TPGSGOPqTvtx-37" style="edgeStyle=orthogonalEdgeStyle;rounded=0;orthogonalLoop=1;jettySize=auto;html=1;" edge="1" parent="1" source="ux9DrI02TPGSGOPqTvtx-79" target="ux9DrI02TPGSGOPqTvtx-1">
          <mxGeometry relative="1" as="geometry">
            <Array as="points">
              <mxPoint x="1130" y="1155" />
              <mxPoint x="1130" y="565" />
            </Array>
          </mxGeometry>
        </mxCell>
        <mxCell id="ux9DrI02TPGSGOPqTvtx-38" value="False" style="edgeLabel;html=1;align=center;verticalAlign=middle;resizable=0;points=[];fontSize=12;" vertex="1" connectable="0" parent="ux9DrI02TPGSGOPqTvtx-37">
          <mxGeometry x="0.3652" relative="1" as="geometry">
            <mxPoint y="392" as="offset" />
          </mxGeometry>
        </mxCell>
        <mxCell id="ux9DrI02TPGSGOPqTvtx-80" style="edgeStyle=orthogonalEdgeStyle;rounded=0;orthogonalLoop=1;jettySize=auto;html=1;" edge="1" parent="1" source="ux9DrI02TPGSGOPqTvtx-27" target="ux9DrI02TPGSGOPqTvtx-79">
          <mxGeometry relative="1" as="geometry" />
        </mxCell>
        <mxCell id="ux9DrI02TPGSGOPqTvtx-81" value="False" style="edgeLabel;html=1;align=center;verticalAlign=middle;resizable=0;points=[];" vertex="1" connectable="0" parent="ux9DrI02TPGSGOPqTvtx-80">
          <mxGeometry x="-0.14" relative="1" as="geometry">
            <mxPoint y="-1" as="offset" />
          </mxGeometry>
        </mxCell>
        <mxCell id="ux9DrI02TPGSGOPqTvtx-27" value="Hapus Data" style="rhombus;whiteSpace=wrap;html=1;strokeWidth=2;" vertex="1" parent="1">
          <mxGeometry x="1165" y="990" width="80" height="80" as="geometry" />
        </mxCell>
        <mxCell id="ux9DrI02TPGSGOPqTvtx-39" value="" style="edgeStyle=orthogonalEdgeStyle;rounded=0;orthogonalLoop=1;jettySize=auto;html=1;" edge="1" parent="1" target="ux9DrI02TPGSGOPqTvtx-44" source="cdZ0ecQucNiZ-IruvXoV-17">
          <mxGeometry relative="1" as="geometry">
            <mxPoint x="1555" y="710" as="sourcePoint" />
          </mxGeometry>
        </mxCell>
        <mxCell id="ux9DrI02TPGSGOPqTvtx-40" style="edgeStyle=orthogonalEdgeStyle;rounded=0;orthogonalLoop=1;jettySize=auto;html=1;" edge="1" parent="1" source="ux9DrI02TPGSGOPqTvtx-44" target="cdZ0ecQucNiZ-IruvXoV-23">
          <mxGeometry relative="1" as="geometry">
            <mxPoint x="1650" y="790" as="targetPoint" />
          </mxGeometry>
        </mxCell>
        <mxCell id="ux9DrI02TPGSGOPqTvtx-41" value="True" style="edgeLabel;html=1;align=center;verticalAlign=middle;resizable=0;points=[];fontSize=12;" vertex="1" connectable="0" parent="ux9DrI02TPGSGOPqTvtx-40">
          <mxGeometry x="-0.1187" relative="1" as="geometry">
            <mxPoint x="-3" as="offset" />
          </mxGeometry>
        </mxCell>
        <mxCell id="ux9DrI02TPGSGOPqTvtx-42" value="" style="edgeStyle=orthogonalEdgeStyle;rounded=0;orthogonalLoop=1;jettySize=auto;html=1;" edge="1" parent="1" source="ux9DrI02TPGSGOPqTvtx-44" target="ux9DrI02TPGSGOPqTvtx-49">
          <mxGeometry relative="1" as="geometry" />
        </mxCell>
        <mxCell id="ux9DrI02TPGSGOPqTvtx-43" value="False" style="edgeLabel;html=1;align=center;verticalAlign=middle;resizable=0;points=[];fontSize=12;" vertex="1" connectable="0" parent="ux9DrI02TPGSGOPqTvtx-42">
          <mxGeometry x="-0.2441" relative="1" as="geometry">
            <mxPoint as="offset" />
          </mxGeometry>
        </mxCell>
        <mxCell id="ux9DrI02TPGSGOPqTvtx-44" value="Tambah&lt;div&gt;Data?&lt;/div&gt;" style="rhombus;whiteSpace=wrap;html=1;strokeWidth=2;" vertex="1" parent="1">
          <mxGeometry x="1505" y="750" width="80" height="80" as="geometry" />
        </mxCell>
        <mxCell id="ux9DrI02TPGSGOPqTvtx-45" style="edgeStyle=orthogonalEdgeStyle;rounded=0;orthogonalLoop=1;jettySize=auto;html=1;" edge="1" parent="1" source="ux9DrI02TPGSGOPqTvtx-49" target="cdZ0ecQucNiZ-IruvXoV-24">
          <mxGeometry relative="1" as="geometry">
            <mxPoint x="1650" y="910" as="targetPoint" />
          </mxGeometry>
        </mxCell>
        <mxCell id="ux9DrI02TPGSGOPqTvtx-46" value="True" style="edgeLabel;html=1;align=center;verticalAlign=middle;resizable=0;points=[];fontSize=12;" vertex="1" connectable="0" parent="ux9DrI02TPGSGOPqTvtx-45">
          <mxGeometry x="0.0096" y="1" relative="1" as="geometry">
            <mxPoint x="-5" as="offset" />
          </mxGeometry>
        </mxCell>
        <mxCell id="ux9DrI02TPGSGOPqTvtx-47" value="" style="edgeStyle=orthogonalEdgeStyle;rounded=0;orthogonalLoop=1;jettySize=auto;html=1;" edge="1" parent="1" source="ux9DrI02TPGSGOPqTvtx-49" target="ux9DrI02TPGSGOPqTvtx-54">
          <mxGeometry relative="1" as="geometry" />
        </mxCell>
        <mxCell id="ux9DrI02TPGSGOPqTvtx-48" value="False" style="edgeLabel;html=1;align=center;verticalAlign=middle;resizable=0;points=[];fontSize=12;" vertex="1" connectable="0" parent="ux9DrI02TPGSGOPqTvtx-47">
          <mxGeometry x="-0.4206" y="1" relative="1" as="geometry">
            <mxPoint y="1" as="offset" />
          </mxGeometry>
        </mxCell>
        <mxCell id="ux9DrI02TPGSGOPqTvtx-49" value="Ubah Data" style="rhombus;whiteSpace=wrap;html=1;strokeWidth=2;" vertex="1" parent="1">
          <mxGeometry x="1505" y="870" width="80" height="80" as="geometry" />
        </mxCell>
        <mxCell id="ux9DrI02TPGSGOPqTvtx-50" style="edgeStyle=orthogonalEdgeStyle;rounded=0;orthogonalLoop=1;jettySize=auto;html=1;" edge="1" parent="1" source="ux9DrI02TPGSGOPqTvtx-54" target="cdZ0ecQucNiZ-IruvXoV-25">
          <mxGeometry relative="1" as="geometry">
            <mxPoint x="1650" y="1030" as="targetPoint" />
          </mxGeometry>
        </mxCell>
        <mxCell id="ux9DrI02TPGSGOPqTvtx-51" value="True" style="edgeLabel;html=1;align=center;verticalAlign=middle;resizable=0;points=[];fontSize=12;" vertex="1" connectable="0" parent="ux9DrI02TPGSGOPqTvtx-50">
          <mxGeometry x="0.0096" relative="1" as="geometry">
            <mxPoint x="-6" as="offset" />
          </mxGeometry>
        </mxCell>
        <mxCell id="ux9DrI02TPGSGOPqTvtx-52" style="edgeStyle=orthogonalEdgeStyle;rounded=0;orthogonalLoop=1;jettySize=auto;html=1;" edge="1" parent="1" source="ux9DrI02TPGSGOPqTvtx-78" target="ux9DrI02TPGSGOPqTvtx-5">
          <mxGeometry relative="1" as="geometry">
            <mxPoint x="1505" y="680" as="targetPoint" />
            <Array as="points">
              <mxPoint x="1470" y="1155" />
              <mxPoint x="1470" y="565" />
            </Array>
          </mxGeometry>
        </mxCell>
        <mxCell id="ux9DrI02TPGSGOPqTvtx-53" value="False" style="edgeLabel;html=1;align=center;verticalAlign=middle;resizable=0;points=[];fontSize=12;" vertex="1" connectable="0" parent="ux9DrI02TPGSGOPqTvtx-52">
          <mxGeometry x="0.3652" relative="1" as="geometry">
            <mxPoint y="388" as="offset" />
          </mxGeometry>
        </mxCell>
        <mxCell id="ux9DrI02TPGSGOPqTvtx-87" style="edgeStyle=orthogonalEdgeStyle;rounded=0;orthogonalLoop=1;jettySize=auto;html=1;" edge="1" parent="1" source="ux9DrI02TPGSGOPqTvtx-54" target="ux9DrI02TPGSGOPqTvtx-78">
          <mxGeometry relative="1" as="geometry" />
        </mxCell>
        <mxCell id="ux9DrI02TPGSGOPqTvtx-88" value="False" style="edgeLabel;html=1;align=center;verticalAlign=middle;resizable=0;points=[];fontSize=12;" vertex="1" connectable="0" parent="ux9DrI02TPGSGOPqTvtx-87">
          <mxGeometry x="-0.58" y="1" relative="1" as="geometry">
            <mxPoint x="-1" y="6" as="offset" />
          </mxGeometry>
        </mxCell>
        <mxCell id="ux9DrI02TPGSGOPqTvtx-54" value="Hapus Data" style="rhombus;whiteSpace=wrap;html=1;strokeWidth=2;" vertex="1" parent="1">
          <mxGeometry x="1505" y="990" width="80" height="80" as="geometry" />
        </mxCell>
        <mxCell id="ux9DrI02TPGSGOPqTvtx-55" value="" style="edgeStyle=orthogonalEdgeStyle;rounded=0;orthogonalLoop=1;jettySize=auto;html=1;" edge="1" parent="1" target="ux9DrI02TPGSGOPqTvtx-60" source="cdZ0ecQucNiZ-IruvXoV-18">
          <mxGeometry relative="1" as="geometry">
            <mxPoint x="1905" y="710" as="sourcePoint" />
          </mxGeometry>
        </mxCell>
        <mxCell id="ux9DrI02TPGSGOPqTvtx-56" style="edgeStyle=orthogonalEdgeStyle;rounded=0;orthogonalLoop=1;jettySize=auto;html=1;" edge="1" parent="1" source="ux9DrI02TPGSGOPqTvtx-60" target="cdZ0ecQucNiZ-IruvXoV-28">
          <mxGeometry relative="1" as="geometry">
            <mxPoint x="2000" y="790" as="targetPoint" />
          </mxGeometry>
        </mxCell>
        <mxCell id="ux9DrI02TPGSGOPqTvtx-57" value="True" style="edgeLabel;html=1;align=center;verticalAlign=middle;resizable=0;points=[];fontSize=12;" vertex="1" connectable="0" parent="ux9DrI02TPGSGOPqTvtx-56">
          <mxGeometry x="-0.1187" relative="1" as="geometry">
            <mxPoint x="-2" as="offset" />
          </mxGeometry>
        </mxCell>
        <mxCell id="ux9DrI02TPGSGOPqTvtx-58" value="" style="edgeStyle=orthogonalEdgeStyle;rounded=0;orthogonalLoop=1;jettySize=auto;html=1;" edge="1" parent="1" source="ux9DrI02TPGSGOPqTvtx-60" target="ux9DrI02TPGSGOPqTvtx-65">
          <mxGeometry relative="1" as="geometry" />
        </mxCell>
        <mxCell id="ux9DrI02TPGSGOPqTvtx-59" value="False" style="edgeLabel;html=1;align=center;verticalAlign=middle;resizable=0;points=[];" vertex="1" connectable="0" parent="ux9DrI02TPGSGOPqTvtx-58">
          <mxGeometry x="-0.2441" relative="1" as="geometry">
            <mxPoint as="offset" />
          </mxGeometry>
        </mxCell>
        <mxCell id="ux9DrI02TPGSGOPqTvtx-60" value="Tambah&lt;div&gt;Data?&lt;/div&gt;" style="rhombus;whiteSpace=wrap;html=1;strokeWidth=2;" vertex="1" parent="1">
          <mxGeometry x="1865" y="750" width="80" height="80" as="geometry" />
        </mxCell>
        <mxCell id="ux9DrI02TPGSGOPqTvtx-63" value="" style="edgeStyle=orthogonalEdgeStyle;rounded=0;orthogonalLoop=1;jettySize=auto;html=1;" edge="1" parent="1" source="ux9DrI02TPGSGOPqTvtx-65" target="ux9DrI02TPGSGOPqTvtx-70">
          <mxGeometry relative="1" as="geometry" />
        </mxCell>
        <mxCell id="ux9DrI02TPGSGOPqTvtx-64" value="False" style="edgeLabel;html=1;align=center;verticalAlign=middle;resizable=0;points=[];" vertex="1" connectable="0" parent="ux9DrI02TPGSGOPqTvtx-63">
          <mxGeometry x="-0.4206" y="1" relative="1" as="geometry">
            <mxPoint as="offset" />
          </mxGeometry>
        </mxCell>
        <mxCell id="ux9DrI02TPGSGOPqTvtx-65" value="Ubah Data" style="rhombus;whiteSpace=wrap;html=1;strokeWidth=2;" vertex="1" parent="1">
          <mxGeometry x="1865" y="870" width="80" height="80" as="geometry" />
        </mxCell>
        <mxCell id="ux9DrI02TPGSGOPqTvtx-66" style="edgeStyle=orthogonalEdgeStyle;rounded=0;orthogonalLoop=1;jettySize=auto;html=1;" edge="1" parent="1" source="ux9DrI02TPGSGOPqTvtx-70" target="cdZ0ecQucNiZ-IruvXoV-26">
          <mxGeometry relative="1" as="geometry">
            <mxPoint x="2000" y="1030" as="targetPoint" />
          </mxGeometry>
        </mxCell>
        <mxCell id="ux9DrI02TPGSGOPqTvtx-67" value="True" style="edgeLabel;html=1;align=center;verticalAlign=middle;resizable=0;points=[];fontSize=12;" vertex="1" connectable="0" parent="ux9DrI02TPGSGOPqTvtx-66">
          <mxGeometry x="0.0096" relative="1" as="geometry">
            <mxPoint x="-5" as="offset" />
          </mxGeometry>
        </mxCell>
        <mxCell id="ux9DrI02TPGSGOPqTvtx-68" style="edgeStyle=orthogonalEdgeStyle;rounded=0;orthogonalLoop=1;jettySize=auto;html=1;" edge="1" parent="1" source="ux9DrI02TPGSGOPqTvtx-77" target="ux9DrI02TPGSGOPqTvtx-9">
          <mxGeometry relative="1" as="geometry">
            <mxPoint x="1855" y="680" as="targetPoint" />
            <Array as="points">
              <mxPoint x="1830" y="1155" />
              <mxPoint x="1830" y="565" />
            </Array>
          </mxGeometry>
        </mxCell>
        <mxCell id="ux9DrI02TPGSGOPqTvtx-69" value="False" style="edgeLabel;html=1;align=center;verticalAlign=middle;resizable=0;points=[];fontSize=12;" vertex="1" connectable="0" parent="ux9DrI02TPGSGOPqTvtx-68">
          <mxGeometry x="0.3652" relative="1" as="geometry">
            <mxPoint y="388" as="offset" />
          </mxGeometry>
        </mxCell>
        <mxCell id="ux9DrI02TPGSGOPqTvtx-84" style="edgeStyle=orthogonalEdgeStyle;rounded=0;orthogonalLoop=1;jettySize=auto;html=1;" edge="1" parent="1" source="ux9DrI02TPGSGOPqTvtx-70" target="ux9DrI02TPGSGOPqTvtx-77">
          <mxGeometry relative="1" as="geometry" />
        </mxCell>
        <mxCell id="ux9DrI02TPGSGOPqTvtx-85" value="False" style="edgeLabel;html=1;align=center;verticalAlign=middle;resizable=0;points=[];" vertex="1" connectable="0" parent="ux9DrI02TPGSGOPqTvtx-84">
          <mxGeometry x="-0.38" y="-5" relative="1" as="geometry">
            <mxPoint x="5" as="offset" />
          </mxGeometry>
        </mxCell>
        <mxCell id="ux9DrI02TPGSGOPqTvtx-70" value="Hapus Data" style="rhombus;whiteSpace=wrap;html=1;strokeWidth=2;" vertex="1" parent="1">
          <mxGeometry x="1865" y="990" width="80" height="80" as="geometry" />
        </mxCell>
        <mxCell id="ux9DrI02TPGSGOPqTvtx-91" style="edgeStyle=orthogonalEdgeStyle;rounded=0;orthogonalLoop=1;jettySize=auto;html=1;" edge="1" parent="1" source="ux9DrI02TPGSGOPqTvtx-77" target="cdZ0ecQucNiZ-IruvXoV-19">
          <mxGeometry relative="1" as="geometry">
            <Array as="points">
              <mxPoint x="1905" y="1240" />
              <mxPoint x="1625" y="1240" />
            </Array>
          </mxGeometry>
        </mxCell>
        <mxCell id="ux9DrI02TPGSGOPqTvtx-103" value="True" style="edgeLabel;html=1;align=center;verticalAlign=middle;resizable=0;points=[];fontSize=12;" vertex="1" connectable="0" parent="ux9DrI02TPGSGOPqTvtx-91">
          <mxGeometry x="-0.911" y="1" relative="1" as="geometry">
            <mxPoint as="offset" />
          </mxGeometry>
        </mxCell>
        <mxCell id="ux9DrI02TPGSGOPqTvtx-77" value="Keluar&lt;div&gt;Sistem?&lt;/div&gt;" style="rhombus;whiteSpace=wrap;html=1;strokeWidth=2;" vertex="1" parent="1">
          <mxGeometry x="1860" y="1110" width="90" height="90" as="geometry" />
        </mxCell>
        <mxCell id="ux9DrI02TPGSGOPqTvtx-89" style="edgeStyle=orthogonalEdgeStyle;rounded=0;orthogonalLoop=1;jettySize=auto;html=1;" edge="1" parent="1" source="ux9DrI02TPGSGOPqTvtx-78" target="cdZ0ecQucNiZ-IruvXoV-19">
          <mxGeometry relative="1" as="geometry">
            <Array as="points">
              <mxPoint x="1545" y="1240" />
              <mxPoint x="1625" y="1240" />
            </Array>
          </mxGeometry>
        </mxCell>
        <mxCell id="ux9DrI02TPGSGOPqTvtx-104" value="True" style="edgeLabel;html=1;align=center;verticalAlign=middle;resizable=0;points=[];fontSize=12;" vertex="1" connectable="0" parent="ux9DrI02TPGSGOPqTvtx-89">
          <mxGeometry x="-0.7367" y="-6" relative="1" as="geometry">
            <mxPoint x="6" as="offset" />
          </mxGeometry>
        </mxCell>
        <mxCell id="ux9DrI02TPGSGOPqTvtx-78" value="Keluar&lt;div&gt;Sistem?&lt;/div&gt;" style="rhombus;whiteSpace=wrap;html=1;strokeWidth=2;" vertex="1" parent="1">
          <mxGeometry x="1500" y="1110" width="90" height="90" as="geometry" />
        </mxCell>
        <mxCell id="ux9DrI02TPGSGOPqTvtx-92" style="edgeStyle=orthogonalEdgeStyle;rounded=0;orthogonalLoop=1;jettySize=auto;html=1;" edge="1" parent="1" source="ux9DrI02TPGSGOPqTvtx-79" target="cdZ0ecQucNiZ-IruvXoV-19">
          <mxGeometry relative="1" as="geometry">
            <Array as="points">
              <mxPoint x="1205" y="1240" />
              <mxPoint x="1625" y="1240" />
            </Array>
          </mxGeometry>
        </mxCell>
        <mxCell id="ux9DrI02TPGSGOPqTvtx-110" value="True" style="edgeLabel;html=1;align=center;verticalAlign=middle;resizable=0;points=[];fontSize=12;" vertex="1" connectable="0" parent="ux9DrI02TPGSGOPqTvtx-92">
          <mxGeometry x="-0.9364" relative="1" as="geometry">
            <mxPoint as="offset" />
          </mxGeometry>
        </mxCell>
        <mxCell id="ux9DrI02TPGSGOPqTvtx-79" value="Keluar&lt;div&gt;Sistem?&lt;/div&gt;" style="rhombus;whiteSpace=wrap;html=1;strokeWidth=2;" vertex="1" parent="1">
          <mxGeometry x="1160" y="1110" width="90" height="90" as="geometry" />
        </mxCell>
        <mxCell id="ux9DrI02TPGSGOPqTvtx-106" style="edgeStyle=orthogonalEdgeStyle;rounded=0;orthogonalLoop=1;jettySize=auto;html=1;" edge="1" parent="1" source="ux9DrI02TPGSGOPqTvtx-105" target="ux9DrI02TPGSGOPqTvtx-1">
          <mxGeometry relative="1" as="geometry">
            <Array as="points">
              <mxPoint x="1205" y="480" />
            </Array>
          </mxGeometry>
        </mxCell>
        <mxCell id="ux9DrI02TPGSGOPqTvtx-109" value="False" style="edgeLabel;html=1;align=center;verticalAlign=middle;resizable=0;points=[];" vertex="1" connectable="0" parent="ux9DrI02TPGSGOPqTvtx-106">
          <mxGeometry x="-0.8486" y="-3" relative="1" as="geometry">
            <mxPoint x="16" y="3" as="offset" />
          </mxGeometry>
        </mxCell>
        <mxCell id="ux9DrI02TPGSGOPqTvtx-107" style="edgeStyle=orthogonalEdgeStyle;rounded=0;orthogonalLoop=1;jettySize=auto;html=1;" edge="1" parent="1" source="ux9DrI02TPGSGOPqTvtx-105" target="cdZ0ecQucNiZ-IruvXoV-15">
          <mxGeometry relative="1" as="geometry">
            <Array as="points">
              <mxPoint x="2063" y="400" />
            </Array>
          </mxGeometry>
        </mxCell>
        <mxCell id="ux9DrI02TPGSGOPqTvtx-108" value="True" style="edgeLabel;html=1;align=center;verticalAlign=middle;resizable=0;points=[];" vertex="1" connectable="0" parent="ux9DrI02TPGSGOPqTvtx-107">
          <mxGeometry x="-0.0159" y="4" relative="1" as="geometry">
            <mxPoint x="62" y="16" as="offset" />
          </mxGeometry>
        </mxCell>
        <mxCell id="ux9DrI02TPGSGOPqTvtx-105" value="Dashboard?" style="rhombus;whiteSpace=wrap;html=1;strokeWidth=2;" vertex="1" parent="1">
          <mxGeometry x="2018" y="435" width="90" height="90" as="geometry" />
        </mxCell>
      </root>
    </mxGraphModel>
  </diagram>
</mxfile>
